<VTKFile type="PolyData" version="1.0" byte_order="LittleEndian" header_type="UInt64">
  <PolyData>
    <Piece NumberOfPoints="166" NumberOfVerts="166">
      <Points>
        <DataArray type="Float32" Name="Points" NumberOfComponents="3" format="ascii">
0.9475718 0.5451189 0.5064441
0.8774638 0.5379943 0.6156506
0.7975307 0.5133917 0.628096
0.9369192 0.5438879 0.5520664
0.9128301 0.5187955 0.5905704
0.7394622 0.5240433 0.6029862
0.7247154 0.5103261 0.5886903
0.8866966 0.5388264 0.6104012
0.6903996 0.5088182 0.5125136
0.7211764 0.5103236 0.5847434
0.752928 0.5253535 0.612115
0.908574 0.5407276 0.59323
0.7408679 0.5115042 0.6033514
0.9493366 0.5215377 0.5061903
0.7198189 0.5218402 0.5841393
0.8263568 0.5323493 0.6297563
0.8371105 0.5333591 0.6286397
0.6905185 0.5186738 0.5192391
0.9413639 0.5219176 0.5451497
0.8655235 0.5347579 0.6211395
0.9107485 0.5387592 0.59127
0.9350514 0.5217228 0.5594823
0.9267326 0.5217584 0.5734133
0.942946 0.5416933 0.5360419
0.793097 0.5152931 0.6272695
0.7453145 0.5228847 0.607145
0.6992072 0.5182912 0.5501084
0.7030333 0.5183911 0.558417
0.8915296 0.5353988 0.6074826
0.8083385 0.516985 0.6295171
0.7739618 0.5151019 0.6217317
0.8283817 0.529507 0.6296372
0.9082991 0.5363992 0.5938866
0.7403046 0.5213894 0.6034368
0.8255248 0.5182441 0.6298598
0.8380363 0.5300428 0.628549
0.8768049 0.5334319 0.6162018
0.6963573 0.517199 0.5424007
0.9157128 0.5362737 0.5862218
0.8185999 0.5277447 0.6299999
0.8756579 0.5215577 0.617188
0.6902103 0.5163442 0.5153649
0.7403412 0.5141 0.6030541
0.9267119 0.5364399 0.571963
0.9489354 0.5265524 0.5085282
0.7911893 0.5173457 0.6268835
0.7799352 0.5234819 0.6239864
0.7220922 0.5185494 0.5863996
0.8806021 0.5317461 0.6143042
0.7531309 0.5154871 0.6117659
0.8983467 0.5330169 0.6026932
0.7874681 0.5179748 0.6260075
0.8403133 0.5279264 0.628217
0.7372072 0.51489 0.6006103
0.8276019 0.5207375 0.6297375
0.9462259 0.5361105 0.5244259
0.6975088 0.5125422 0.5446452
0.9177232 0.5337557 0.5841557
0.9261453 0.5341494 0.5730841
0.8561945 0.5228152 0.6246458
0.6899268 0.5151057 0.5116887
0.7034656 0.5133758 0.558497
0.8621355 0.528549 0.6225914
0.7173241 0.5145191 0.5803548
0.733796 0.5157803 0.5977768
0.9483284 0.5348849 0.5090654
0.9453173 0.5303236 0.530595
0.7140009 0.5147292 0.575969
0.8510065 0.5270376 0.6259882
0.7086817 0.515978 0.5681458
0.7001324 0.5138828 0.5514472
0.7595233 0.5198088 0.6154699
0.9479796 0.5311122 0.5156162
0.7086753 0.5145322 0.5679638
0.6898219 0.5133407 0.5086804
0.7440498 0.5185277 0.6060083
0.6901102 0.5141386 0.5128359
0.7194966 0.5161827 0.5831773
0.7291159 0.5163102 0.5935155
0.6971022 0.514205 0.5438353
0.8040931 0.5219922 0.6291186
0.8931203 0.5001158 0.6074868
0.9430054 0.5003529 0.5420668
0.8859396 0.5004932 0.6120354
0.7420595 0.5003265 0.6040448
0.7745358 0.500385 0.6217909
0.9031438 0.5007057 0.5999351
0.7835079 0.5007202 0.6247734
0.6998429 0.5005093 0.549623
0.9007927 0.5012929 0.601844
0.793255 0.5010079 0.6272194
0.848282 0.5012438 0.6268858
0.8158972 0.5011401 0.6299353
0.7883091 0.5010945 0.6260786
0.9238037 0.5016459 0.5782568
0.778882 0.5012206 0.623327
0.8711177 0.5017254 0.6195264
0.888947 0.5021478 0.6102065
0.9247333 0.5029395 0.5769988
0.9499051 0.5031816 0.5046623
0.7530228 0.5020261 0.6114233
0.8050823 0.5026786 0.6291426
0.7696568 0.5026302 0.6198618
0.9374927 0.5046223 0.5555851
0.6949397 0.5021937 0.535539
0.7157912 0.5024505 0.5777395
0.783252 0.5038981 0.6247059
0.9267857 0.5060948 0.5740778
0.6979903 0.5031053 0.5449396
0.9489715 0.507131 0.5158662
0.9498324 0.507241 0.5053285
0.9497478 0.5072774 0.5070865
0.6920428 0.5031433 0.5230987
0.8828642 0.506278 0.6137612
0.940557 0.5075008 0.548483
0.9141459 0.5071322 0.5895822
0.9380879 0.507593 0.5542189
0.7353105 0.5040837 0.5986595
0.9127349 0.5074221 0.5910378
0.7486545 0.5044948 0.6086996
0.8550206 0.5065269 0.6251773
0.7328706 0.5044208 0.5965183
0.9403826 0.5084791 0.5488709
0.8793672 0.5074173 0.6156154
0.9479578 0.5088241 0.5224624
0.9448195 0.5087812 0.5360342
0.8512912 0.5074827 0.6261581
0.9394169 0.509549 0.5511352
0.7807771 0.5061117 0.6239628
0.6935197 0.5042222 0.5302387
0.7538046 0.5056553 0.6119218
0.7402953 0.5055019 0.6027482
0.9156979 0.5096649 0.5878657
0.8197732 0.5079194 0.6299999
0.7913482 0.5073157 0.626824
0.692238 0.5048704 0.5243441
0.7740527 0.5072978 0.621646
0.8727577 0.5100533 0.6187531
0.9496623 0.5123654 0.5066012
0.7060977 0.5058033 0.5628081
0.6985654 0.5055957 0.5466132
0.7063456 0.5060409 0.5632674
0.7533388 0.5076004 0.6116757
0.9014528 0.5121835 0.6011696
0.8627719 0.5114173 0.6226995
0.6903198 0.5060723 0.5103998
0.756997 0.5083841 0.6137885
0.945413 0.5147372 0.5333223
0.9041333 0.5133912 0.5989152
0.8865228 0.5129327 0.6115612
0.8117962 0.5106333 0.6297522
0.9494435 0.5154908 0.5086725
0.7648462 0.5091306 0.6177939
0.9268317 0.5148125 0.5737022
0.7358956 0.50837 0.5992542
0.7601191 0.5095765 0.6154788
0.8830646 0.5144904 0.6135263
0.9039448 0.5155632 0.5990094
0.6988447 0.5077504 0.547518
0.6907696 0.5076077 0.5154485
0.9447251 0.5179648 0.5353983
0.6899886 0.5078646 0.5062702
0.7942029 0.5122858 0.6274663
0.9041593 0.5169025 0.5987806
0.9291892 0.518604 0.5699253
0.9198176 0.5183558 0.5828022
        </DataArray>
      </Points>
      <Verts>
        <DataArray type="Int64" Name="connectivity" format="ascii">
0
1
2
3
4
5
6
7
8
9
10
11
12
13
14
15
16
17
18
19
20
21
22
23
24
25
26
27
28
29
30
31
32
33
34
35
36
37
38
39
40
41
42
43
44
45
46
47
48
49
50
51
52
53
54
55
56
57
58
59
60
61
62
63
64
65
66
67
68
69
70
71
72
73
74
75
76
77
78
79
80
81
82
83
84
85
86
87
88
89
90
91
92
93
94
95
96
97
98
99
100
101
102
103
104
105
106
107
108
109
110
111
112
113
114
115
116
117
118
119
120
121
122
123
124
125
126
127
128
129
130
131
132
133
134
135
136
137
138
139
140
141
142
143
144
145
146
147
148
149
150
151
152
153
154
155
156
157
158
159
160
161
162
163
164
165
        </DataArray>
                <DataArray type="Int64" Name="offsets" format="ascii">
1
2
3
4
5
6
7
8
9
10
11
12
13
14
15
16
17
18
19
20
21
22
23
24
25
26
27
28
29
30
31
32
33
34
35
36
37
38
39
40
41
42
43
44
45
46
47
48
49
50
51
52
53
54
55
56
57
58
59
60
61
62
63
64
65
66
67
68
69
70
71
72
73
74
75
76
77
78
79
80
81
82
83
84
85
86
87
88
89
90
91
92
93
94
95
96
97
98
99
100
101
102
103
104
105
106
107
108
109
110
111
112
113
114
115
116
117
118
119
120
121
122
123
124
125
126
127
128
129
130
131
132
133
134
135
136
137
138
139
140
141
142
143
144
145
146
147
148
149
150
151
152
153
154
155
156
157
158
159
160
161
162
163
164
165
166
        </DataArray>
      </Verts>
      <PointData>
        <DataArray type="Float32" Name="color" format="ascii">
0.01599009
0.01596626
0.007158676
0.01593341
0.007241067
0.01592666
0.007308306
0.01592664
0.007365856
0.007423273
0.01590058
0.01581268
0.007595705
0.007622804
0.01576116
0.01572451
0.01569822
0.01555005
0.007896939
0.0150888
0.01497392
0.007940263
0.008108039
0.01493682
0.008296816
0.01480426
0.01457277
0.01437728
0.01435045
0.008758276
0.008764391
0.01426272
0.01415098
0.01412904
0.008910579
0.01410773
0.01408412
0.01390492
0.01385223
0.01382486
0.009123364
0.01364225
0.0093264
0.01355845
0.009402292
0.009469398
0.01331928
0.01326203
0.01324451
0.009725362
0.01316146
0.009938683
0.01303119
0.009977381
0.01006124
0.0128515
0.01009311
0.0128332
0.01272678
0.01018037
0.01263172
0.01044782
0.0125211
0.01061712
0.01072605
0.0123591
0.01082083
0.01093701
0.01223536
0.01216219
0.01102263
0.0121244
0.0110356
0.01106572
0.01116709
0.01205953
0.01181474
0.01171274
0.01131078
0.01145033
0.01149019
4.687766e-05
0.0001267842
0.0002033804
0.0002146387
0.0002232124
0.0002785921
0.0004043034
0.000405591
0.0005134186
0.00054701
0.0005683647
0.0005744193
0.0006041727
0.0006180787
0.0006965864
0.0007399344
0.0008788561
0.001101478
0.00112548
0.001274402
0.001397331
0.001552316
0.001681471
0.00179091
0.001807294
0.002190127
0.002272675
0.002496001
0.002527627
0.00256172
0.00257507
0.00260471
0.002609519
0.002709482
0.002740604
0.002758222
0.002761767
0.002861757
0.002876679
0.002925664
0.003021041
0.003063977
0.003111385
0.00313472
0.003141469
0.003389569
0.003458079
0.003463807
0.003471901
0.003545712
0.00364345
0.003699647
0.003940783
0.00399552
0.004031369
0.004237139
0.00429139
0.00437554
0.004480304
0.004483949
0.004658008
0.004773335
0.004828624
0.005007335
0.005076203
0.005190319
0.005264002
0.00527177
0.005323182
0.005425635
0.005483341
0.005484709
0.005521015
0.005644756
0.005856776
0.006017558
0.006128909
0.006200267
0.006343574
0.006425603
0.00658449
0.006642377
0.00665221
0.006894549
0.006954338
        </DataArray>
        <DataArray type="Float32" Name="normal" NumberOfComponents="3" format="ascii">
0.9937341 0.1001765 0.04956975
0.4544055 0.04573904 0.8896199
-0.1703511 -0.007667444 0.9853536
0.9117038 0.09157918 0.4005114
0.7166246 0.03262676 0.6966955
-0.6072067 -0.06096691 0.7922014
-0.7303637 -0.03356149 0.6822335
0.5253658 0.05274956 0.8492398
-0.9942905 -0.04604968 0.09625877
-0.7575041 -0.035357 0.6518722
-0.503664 -0.0504873 0.8624231
0.6934777 0.06912738 0.7171541
-0.6059054 -0.02893895 0.7950102
0.9977202 0.04782287 0.04761786
-0.7585636 -0.07536732 0.6472257
0.06090247 0.00603682 0.9981255
0.1435832 0.01420841 0.9895362
-0.9842717 -0.09647432 0.1479929
0.9365979 0.04651023 0.3473055
0.3612348 0.03435011 0.931842
0.7089518 0.06689847 0.7020769
0.8880742 0.04434295 0.4575564
0.8242137 0.04202537 0.5647173
0.956571 0.09003944 0.277245
-0.203602 -0.01062349 0.9789961
-0.5638626 -0.05260111 0.8241917
-0.9188638 -0.08437023 0.385449
-0.8897074 -0.08059115 0.4493615
0.5602273 0.0506511 0.8267889
-0.08597723 -0.004736098 0.9962859
-0.3504086 -0.01931593 0.9363977
0.07435163 0.006680937 0.9972097
0.6889476 0.0614185 0.7222042
-0.6033475 -0.05370355 0.7956681
0.04635541 0.002598007 0.9989216
0.148405 0.0131894 0.9888387
0.4465929 0.03962389 0.8938594
-0.9417092 -0.08248448 0.3261596
0.7455698 0.06505585 0.6632446
-0.001488935 -0.0001296613 0.9999989
0.4321806 0.0248014 0.901446
-0.9893451 -0.08501177 0.1181913
-0.6085346 -0.0357007 0.7927238
0.829788 0.07086135 0.5535617
0.9961051 0.0589148 0.06560156
-0.2172654 -0.01294213 0.9760268
-0.299576 -0.02512947 0.9537414
-0.7445961 -0.06218957 0.664612
0.4746885 0.03959394 0.8792629
-0.5097834 -0.03118979 0.8597372
0.6110787 0.05064922 0.7899477
-0.2454478 -0.01534733 0.9692883
0.1645025 0.01349922 0.9862843
-0.6320325 -0.03967394 0.7739257
0.06339315 0.00401285 0.9979805
0.9789894 0.07922406 0.1878915
-0.9372923 -0.05951995 0.3434248
0.7597151 0.06139152 0.6473515
0.8243684 0.06606124 0.5621856
0.2834532 0.01815589 0.9588142
-0.9928144 -0.078963 0.08991328
-0.8911169 -0.05858204 0.4499766
0.3317335 0.02615226 0.9430106
-0.7843398 -0.05240055 0.6181142
-0.6575196 -0.04437995 0.7521292
0.9945593 0.07738763 0.06973445
0.9696662 0.06602869 0.235346
-0.8095673 -0.05572062 0.5843766
0.2457817 0.01893229 0.9691403
-0.8491111 -0.06501339 0.5241981
-0.9161578 -0.06355219 0.3957473
-0.4580662 -0.03496307 0.8882303
0.9903733 0.0687815 0.1201249
-0.8503968 -0.05922183 0.5227983
-0.9953132 -0.06995088 0.06677224
-0.5771692 -0.04381732 0.8154482
-0.9923729 -0.07380361 0.0987379
-0.7664405 -0.05650693 0.639825
-0.6928949 -0.04932553 0.7193495
-0.9389995 -0.0676727 0.3371948
-0.1159481 -0.008385446 0.9932199
0.5624644 0.0001656688 0.8268214
0.9461969 0.0007537488 0.3235907
0.5072298 0.0006481774 0.8618106
-0.5995399 -0.0008085488 0.8003444
-0.3497225 -0.0004904809 0.9368532
0.6395712 0.001119536 0.768731
-0.2807005 -0.0007130688 0.9597951
-0.9242771 -0.002355436 0.381715
0.6214955 0.002004892 0.7834152
-0.2057167 -0.0007070439 0.9786114
0.2175696 0.000776975 0.9760445
-0.03154418 -0.0001138492 0.9995024
-0.2437586 -0.0009253435 0.9698355
0.7985088 0.003101027 0.6019752
-0.3162684 -0.001384247 0.9486687
0.3932399 0.001828242 0.9194341
0.5303994 0.002928903 0.8477429
0.8056996 0.005576165 0.5922981
0.9993317 0.007066989 0.03586391
-0.5151302 -0.004124892 0.857102
-0.1146569 -0.001006678 0.9934046
-0.3871381 -0.003776068 0.922014
0.9039279 0.00955035 0.4275783
-0.9618461 -0.01082375 0.2733769
-0.8014472 -0.009101275 0.5979962
-0.2824438 -0.003886946 0.959276
0.8216794 0.01173408 0.5698291
-0.9382335 -0.01471537 0.3456896
0.9923991 0.01576216 0.1220474
0.9990302 0.01608154 0.04098842
0.9983824 0.01615488 0.05451159
-0.9839561 -0.01610474 0.1776823
0.4839017 0.007934808 0.8750864
0.9277186 0.01579517 0.3729458
0.7245645 0.01247803 0.6890941
0.9087386 0.0157504 0.4170686
-0.6510873 -0.01129925 0.7589188
0.7137428 0.01283516 0.7002903
-0.5484096 -0.009913422 0.8361511
0.2698052 0.004960249 0.9629022
-0.6697825 -0.01271518 0.7424485
0.9264764 0.0178383 0.37593
0.4571418 0.008937989 0.8893489
0.984768 0.01939853 0.1727878
0.960629 0.01896377 0.2771865
0.2412594 0.005138949 0.9704471
0.9191728 0.0199747 0.3933478
-0.3011316 -0.006554785 0.9535601
-0.9723397 -0.02121456 0.2326056
-0.5085849 -0.01133231 0.8609373
-0.6124684 -0.01402337 0.7903707
0.7368034 0.0171305 0.67589
-0.0009898924 -2.451541e-05 0.9999995
-0.2196226 -0.005514694 0.9755693
-0.9819948 -0.02487909 0.1872623
-0.3525681 -0.009388543 0.935739
0.4067236 0.01096939 0.9134854
0.9983325 0.0274534 0.05077875
-0.8751965 -0.0246438 0.4831394
-0.9331351 -0.02629662 0.3585629
-0.8732107 -0.02556367 0.486672
-0.5116713 -0.01535052 0.8590441
0.6276929 0.01904951 0.778228
0.3302328 0.01039322 0.9438423
-0.996288 -0.03178711 0.07999866
-0.48333 -0.01576782 0.8752962
0.9660618 0.03196386 0.2563258
0.6485295 0.02148943 0.7608861
0.5130907 0.01716751 0.8581627
-0.06167632 -0.002103377 0.998094
0.9971802 0.0343693 0.06671137
-0.4227984 -0.01457601 0.9061065
0.8232635 0.02857011 0.5669401
-0.6454088 -0.02290035 0.763494
-0.4589555 -0.01689683 0.8882986
0.4868715 0.01841711 0.8732794
0.6475546 0.02494906 0.7616105
-0.9300959 -0.03625249 0.3655234
-0.9921256 -0.03956494 0.118834
0.9614298 0.03883716 0.2722947
-0.9979814 -0.04131163 0.04823258
-0.1962958 -0.00819722 0.9805105
0.6495295 0.02716425 0.759851
0.8422261 0.03650785 0.5378869
0.7701774 0.03367464 0.6369402
        </DataArray>
        <DataArray type="Float32" Name="domain" format="ascii">
1.0
1.0
1.0
1.0
1.0
1.0
1.0
1.0
1.0
1.0
1.0
1.0
1.0
1.0
1.0
1.0
1.0
1.0
1.0
1.0
1.0
1.0
1.0
1.0
1.0
1.0
1.0
1.0
1.0
1.0
1.0
1.0
1.0
1.0
1.0
1.0
1.0
1.0
1.0
1.0
1.0
1.0
1.0
1.0
1.0
1.0
1.0
1.0
1.0
1.0
1.0
1.0
1.0
1.0
1.0
1.0
1.0
1.0
1.0
1.0
1.0
1.0
1.0
1.0
1.0
1.0
1.0
1.0
1.0
1.0
1.0
1.0
1.0
1.0
1.0
1.0
1.0
1.0
1.0
1.0
1.0
1.0
1.0
1.0
1.0
1.0
1.0
1.0
1.0
1.0
1.0
1.0
1.0
1.0
1.0
1.0
1.0
1.0
1.0
1.0
1.0
1.0
1.0
1.0
1.0
1.0
1.0
1.0
1.0
1.0
1.0
1.0
1.0
1.0
1.0
1.0
1.0
1.0
1.0
1.0
1.0
1.0
1.0
1.0
1.0
1.0
1.0
1.0
1.0
1.0
1.0
1.0
1.0
1.0
1.0
1.0
1.0
1.0
1.0
1.0
1.0
1.0
1.0
1.0
1.0
1.0
1.0
1.0
1.0
1.0
1.0
1.0
1.0
1.0
1.0
1.0
1.0
1.0
1.0
1.0
1.0
1.0
1.0
1.0
1.0
1.0
        </DataArray>
      </PointData>
    </Piece>
  </PolyData>
</VTKFile>