<VTKFile type="PolyData" version="1.0" byte_order="LittleEndian" header_type="UInt64">
  <PolyData>
    <Piece NumberOfPoints="324" NumberOfVerts="324">
      <Points>
        <DataArray type="Float32" Name="Points" NumberOfComponents="3" format="ascii">
0.930802 0.500117 0.4320081
0.7183408 0.5216075 0.4176524
0.8051294 0.5001991 0.3708533
0.7285911 0.522432 0.406491
0.7685702 0.5262932 0.3800609
0.8195345 0.5312514 0.3700043
0.8516678 0.5343611 0.3743486
0.9387605 0.54271 0.4520516
0.9262874 0.5010136 0.4251486
0.7228949 0.5005446 0.4135666
0.7131461 0.5204645 0.424563
0.7541674 0.5243518 0.387226
0.9292593 0.5011075 0.4295579
0.9478676 0.5012792 0.4765606
0.7471256 0.5236055 0.3915934
0.7339168 0.5223364 0.401655
0.876514 0.5357496 0.3837593
0.9434615 0.5412127 0.4656236
0.79738 0.5274394 0.3717663
0.9328368 0.5397869 0.4387404
0.8982568 0.5363073 0.397459
0.9173036 0.5377473 0.415753
0.7435959 0.5011405 0.39482
0.8540844 0.5017683 0.374549
0.7579175 0.5013357 0.3857801
0.7903025 0.5015628 0.3734366
0.7091327 0.5187646 0.4307612
0.8114249 0.5017376 0.3702828
0.9464906 0.50254 0.4700283
0.9185185 0.5025159 0.4151908
0.8327823 0.5021774 0.3706307
0.9207143 0.502874 0.4178132
0.8178753 0.5283364 0.3700029
0.9372661 0.5389025 0.4476491
0.9467974 0.5389863 0.4802764
0.8477106 0.5028913 0.3729903
0.8882256 0.5338241 0.390262
0.706709 0.5018973 0.4362261
0.9365293 0.504072 0.4424109
0.8135877 0.5029305 0.3701576
0.903977 0.5351219 0.4020735
0.8819343 0.5037892 0.3857118
0.89931 0.5039956 0.3970109
0.7350456 0.502461 0.4015879
0.7291082 0.5195081 0.406252
0.6895555 0.5161272 0.4920991
0.7205759 0.5024975 0.4162285
0.9475542 0.5375417 0.4849515
0.8449583 0.5041201 0.3724231
0.9045781 0.5053108 0.4013053
0.8441125 0.5285028 0.3724838
0.7562441 0.5211068 0.3862236
0.7658232 0.5039549 0.3818134
0.7186521 0.5032634 0.4185534
0.7227662 0.5033317 0.4136842
0.692812 0.5029269 0.4730026
0.692813 0.5158266 0.4702007
0.8913723 0.5061539 0.3913764
0.8161507 0.5259365 0.3700299
0.7745341 0.5222698 0.377877
0.9350916 0.5070039 0.4396599
0.9431443 0.5356454 0.4628394
0.921003 0.5335001 0.4198264
0.7447634 0.5194126 0.3934424
0.770059 0.5044505 0.3799602
0.8592902 0.5061126 0.3760961
0.7884383 0.5228654 0.3736665
0.9488366 0.5076744 0.4831408
0.9477133 0.5350706 0.484601
0.7279 0.5177006 0.4075686
0.8596447 0.5278528 0.3765425
0.8556882 0.5062931 0.3750105
0.9254743 0.5075604 0.4240988
0.7346467 0.5177867 0.4013629
0.9171112 0.5306677 0.4148562
0.8832632 0.5069502 0.3864668
0.8514898 0.5064223 0.3738862
0.6942902 0.5140725 0.4650034
0.7120073 0.5039163 0.4275749
0.9414401 0.5313206 0.4566232
0.7668502 0.5050811 0.3813398
0.7849162 0.5054653 0.374809
0.7530067 0.5179123 0.3882129
0.8345332 0.5064665 0.370822
0.8968982 0.5280713 0.3959174
0.6943812 0.5134963 0.4648252
0.6907913 0.5132159 0.4820266
0.9416096 0.5088212 0.454287
0.7928147 0.5060391 0.3728609
0.8572782 0.5246182 0.3757162
0.7908227 0.5062102 0.3733013
0.9487811 0.5096546 0.4830099
0.8906256 0.52655 0.3914463
0.6936308 0.5042098 0.4693016
0.7661027 0.5175878 0.3814364
0.751627 0.5161491 0.3891142
0.737346 0.5052345 0.3996115
0.9030031 0.525813 0.4006385
0.7188506 0.5139724 0.4177884
0.6978161 0.5125294 0.4545268
0.7666073 0.5063915 0.3814361
0.8471936 0.521771 0.3730238
0.7135313 0.5053219 0.4253104
0.9485697 0.5276567 0.4877491
0.6935717 0.5048611 0.4694825
0.9047178 0.5245725 0.4020405
0.7625601 0.5068067 0.3833347
0.9349576 0.5113759 0.4395804
0.8473319 0.5091722 0.3729318
0.7172736 0.5130005 0.4198316
0.6921227 0.5051344 0.4762318
0.6913218 0.5114155 0.4792788
0.7193168 0.5129026 0.4173011
0.9443716 0.5259182 0.4647399
0.9407107 0.5252108 0.4535838
0.9298317 0.512181 0.4307248
0.9346347 0.5248054 0.4400315
0.8729361 0.510942 0.3813377
0.783095 0.5161399 0.3752132
0.7043926 0.5115305 0.439917
0.6972997 0.5061029 0.4567823
0.7010264 0.5112835 0.4468918
0.8982652 0.5222368 0.3966701
0.7409722 0.5077034 0.3966847
0.8205308 0.5102909 0.3700019
0.8569418 0.5197568 0.3755226
0.6949112 0.5063871 0.4642376
0.7578688 0.5085202 0.385732
0.6922583 0.5106153 0.4743721
0.8854487 0.5127657 0.3878004
0.7622007 0.51423 0.3833651
0.9493078 0.5242133 0.496767
0.916115 0.5139348 0.4127246
0.948856 0.5237672 0.4884382
0.743305 0.5083117 0.3949304
0.8209598 0.5109812 0.3700051
0.9092377 0.5140458 0.4056944
0.6899276 0.5100043 0.4929573
0.8035645 0.515499 0.3709933
0.8210624 0.5110955 0.3700061
0.6920354 0.50958 0.4757897
0.8112234 0.5108461 0.370284
0.9325005 0.5152838 0.4353254
0.8371572 0.5167642 0.3711933
0.7023534 0.507274 0.4444121
0.8351659 0.5121496 0.3709137
0.8898044 0.5141758 0.3904952
0.8731873 0.5184813 0.3815844
0.7412205 0.5089982 0.3964616
0.715713 0.5080526 0.4221826
0.7853454 0.5107447 0.3746484
0.9164708 0.5204155 0.4134168
0.7088016 0.5100818 0.4322581
0.7178683 0.5084062 0.4193638
0.9203925 0.5202939 0.4180073
0.6915445 0.5074769 0.4791043
0.6954781 0.5077337 0.4621536
0.9490672 0.521141 0.4893697
0.947705 0.5210476 0.4784386
0.7257863 0.5092955 0.4102237
0.9155166 0.5191455 0.412295
0.9479576 0.520564 0.4798531
0.715382 0.5097148 0.4225349
0.7731792 0.5116121 0.3786293
0.8379135 0.5143685 0.371283
0.9357277 0.5193239 0.4416238
0.9190934 0.5184807 0.4163363
0.9453771 0.5451071 0.4754221
0.8911246 0.5398937 0.392536
0.9189216 0.5428392 0.418284
0.695358 0.5200368 0.4597656
0.887136 0.5401779 0.389958
0.6985422 0.5206955 0.4509269
0.6907637 0.5199217 0.4784351
0.7128174 0.5226219 0.4247174
0.7520496 0.5269207 0.3883061
0.8602235 0.5384803 0.3770651
0.6890185 0.5202611 0.4948674
0.8472841 0.5373828 0.3733427
0.6947734 0.5210624 0.4612519
0.8204577 0.5349227 0.3700213
0.8022322 0.5332492 0.3709815
0.7919501 0.532151 0.372685
0.8199257 0.5353169 0.3700134
0.8587783 0.5398293 0.3766288
0.8517276 0.539162 0.3744981
0.7246506 0.5252133 0.4101363
0.8949082 0.544441 0.3955534
0.7420752 0.5274918 0.3947963
0.6905699 0.5217171 0.4784222
0.9173728 0.5477548 0.4170493
0.7382312 0.5274998 0.3976767
0.9460745 0.5519561 0.4846458
0.7382908 0.5277907 0.3976041
0.7849238 0.5332355 0.3742962
0.9435375 0.5526211 0.4706694
0.7106024 0.5255537 0.4274209
0.8811678 0.546474 0.3868399
0.9436274 0.5541407 0.4718647
0.690909 0.5235153 0.4753842
0.8974354 0.549615 0.3979389
0.7263287 0.5298846 0.4078596
0.732584 0.5308575 0.4019663
0.9446489 0.5589958 0.4806083
0.9435868 0.5593932 0.4748565
0.7525992 0.5338598 0.3874985
0.9321691 0.5581656 0.4414447
0.689104 0.5256454 0.4852895
0.8143786 0.5426497 0.3700289
0.9253024 0.5583147 0.4295904
0.691458 0.5266302 0.47089
0.9412441 0.5614311 0.4660917
0.7134284 0.5297736 0.4226777
0.71807 0.5305239 0.4166985
0.8680753 0.551935 0.3807317
0.9112576 0.5586109 0.4117032
0.9356193 0.5621614 0.4500771
0.9049883 0.5578105 0.4053304
0.9370705 0.5624303 0.4537819
0.7022018 0.5289098 0.440807
0.770282 0.5386762 0.3787799
0.6884863 0.5270394 0.4896092
0.8987063 0.5575595 0.3998122
0.7200415 0.5318055 0.4142083
0.935594 0.5630596 0.4503249
0.7970735 0.5431278 0.3715186
0.690259 0.5277727 0.4757842
0.7115653 0.5310082 0.4249867
0.6974398 0.5289755 0.4510824
0.9448696 0.5657189 0.4911396
0.8317481 0.5494516 0.370917
0.6880269 0.5280722 0.4946302
0.7184844 0.5326301 0.4158531
0.7002962 0.5301285 0.4442742
0.8654439 0.55555 0.3798514
0.6887603 0.5287329 0.4844391
0.9373171 0.5668858 0.4562094
0.8286589 0.5504339 0.370603
0.7143905 0.5330986 0.4207747
0.8908278 0.5607578 0.394187
0.8722621 0.5585475 0.3830836
0.733946 0.5368326 0.4000882
0.7411071 0.5380351 0.3944657
0.8508925 0.555509 0.374872
0.8759061 0.5596389 0.3849926
0.9212239 0.5670497 0.4254883
0.7078459 0.5333331 0.4299276
0.7421273 0.5390517 0.3936356
0.7231651 0.5363633 0.410087
0.9056116 0.5662592 0.4071496
0.694171 0.5320393 0.4585161
0.943815 0.5740064 0.4961517
0.7595817 0.5438568 0.3830358
0.9430139 0.5751927 0.4870149
0.8657066 0.5621285 0.3803988
0.6992124 0.5344089 0.4450979
0.9382458 0.5759514 0.4635265
0.9431757 0.5772376 0.4938811
0.7981267 0.5520537 0.3711647
0.9053413 0.5708323 0.407638
0.9382133 0.5768961 0.4639754
0.8943272 0.5696676 0.3978709
0.6944186 0.5343505 0.4566807
0.9415516 0.5782286 0.4798434
0.6903827 0.5339374 0.4705324
0.9144557 0.574033 0.4181722
0.92029 0.5756108 0.4262229
0.688852 0.5340973 0.4778239
0.7164648 0.5391755 0.4169564
0.9425775 0.5803537 0.4930253
0.7922936 0.5530896 0.3720372
0.9302174 0.5784371 0.4439775
0.733264 0.5427691 0.3998188
0.9360762 0.5800381 0.4589857
0.7211441 0.5407059 0.4114097
0.6905957 0.5352212 0.468706
0.8742846 0.569304 0.3850132
0.8604085 0.5671183 0.3786411
0.8819274 0.5712582 0.3895226
0.798555 0.5558323 0.371022
0.9402131 0.5825332 0.4766354
0.8171157 0.5597036 0.3700278
0.7090865 0.5394999 0.4264818
0.7450435 0.5468112 0.390793
0.6920571 0.5366955 0.4624828
0.6974414 0.5380161 0.4475103
0.8583139 0.5691084 0.3780065
0.6991528 0.5384845 0.4436719
0.9253268 0.5825352 0.436188
0.8811976 0.5740182 0.3893982
0.8895348 0.5759028 0.3951554
0.6887147 0.5367786 0.4758378
0.6868185 0.5364936 0.4904738
0.7678622 0.5523408 0.3788215
0.8796555 0.5749644 0.3885867
0.9329652 0.5855411 0.4533314
0.7042025 0.5403802 0.4337348
0.7159622 0.5427788 0.4167435
0.9314233 0.5859953 0.4497857
0.9365611 0.5874158 0.4650974
0.923179 0.5859306 0.4336877
0.7294937 0.5466662 0.402344
0.8851064 0.5784637 0.392444
0.9398707 0.5896733 0.4832636
0.8061225 0.5624887 0.3702203
0.6962089 0.540424 0.4492157
0.7745404 0.5567614 0.3761953
0.7202055 0.5457492 0.4113577
0.9368909 0.5908337 0.4689344
0.8690741 0.5769097 0.3831637
0.8276587 0.5683855 0.370836
0.8642819 0.5762944 0.3809342
0.806724 0.5642591 0.3701685
0.9213874 0.5885758 0.4316736
0.7576075 0.5543535 0.3830267
0.8854895 0.5813913 0.3931087
0.9128344 0.5871949 0.4193291
0.6866469 0.5394463 0.4858744
0.6917137 0.5406567 0.4610336
0.6934963 0.5410529 0.4556379
0.9051417 0.5859806 0.4103731
0.8481066 0.5740712 0.3750553
0.9204211 0.5897596 0.4305535
0.7668273 0.5579435 0.3787756
        </DataArray>
      </Points>
      <Verts>
        <DataArray type="Int64" Name="connectivity" format="ascii">
0
1
2
3
4
5
6
7
8
9
10
11
12
13
14
15
16
17
18
19
20
21
22
23
24
25
26
27
28
29
30
31
32
33
34
35
36
37
38
39
40
41
42
43
44
45
46
47
48
49
50
51
52
53
54
55
56
57
58
59
60
61
62
63
64
65
66
67
68
69
70
71
72
73
74
75
76
77
78
79
80
81
82
83
84
85
86
87
88
89
90
91
92
93
94
95
96
97
98
99
100
101
102
103
104
105
106
107
108
109
110
111
112
113
114
115
116
117
118
119
120
121
122
123
124
125
126
127
128
129
130
131
132
133
134
135
136
137
138
139
140
141
142
143
144
145
146
147
148
149
150
151
152
153
154
155
156
157
158
159
160
161
162
163
164
165
166
167
168
169
170
171
172
173
174
175
176
177
178
179
180
181
182
183
184
185
186
187
188
189
190
191
192
193
194
195
196
197
198
199
200
201
202
203
204
205
206
207
208
209
210
211
212
213
214
215
216
217
218
219
220
221
222
223
224
225
226
227
228
229
230
231
232
233
234
235
236
237
238
239
240
241
242
243
244
245
246
247
248
249
250
251
252
253
254
255
256
257
258
259
260
261
262
263
264
265
266
267
268
269
270
271
272
273
274
275
276
277
278
279
280
281
282
283
284
285
286
287
288
289
290
291
292
293
294
295
296
297
298
299
300
301
302
303
304
305
306
307
308
309
310
311
312
313
314
315
316
317
318
319
320
321
322
323
        </DataArray>
                <DataArray type="Int64" Name="offsets" format="ascii">
1
2
3
4
5
6
7
8
9
10
11
12
13
14
15
16
17
18
19
20
21
22
23
24
25
26
27
28
29
30
31
32
33
34
35
36
37
38
39
40
41
42
43
44
45
46
47
48
49
50
51
52
53
54
55
56
57
58
59
60
61
62
63
64
65
66
67
68
69
70
71
72
73
74
75
76
77
78
79
80
81
82
83
84
85
86
87
88
89
90
91
92
93
94
95
96
97
98
99
100
101
102
103
104
105
106
107
108
109
110
111
112
113
114
115
116
117
118
119
120
121
122
123
124
125
126
127
128
129
130
131
132
133
134
135
136
137
138
139
140
141
142
143
144
145
146
147
148
149
150
151
152
153
154
155
156
157
158
159
160
161
162
163
164
165
166
167
168
169
170
171
172
173
174
175
176
177
178
179
180
181
182
183
184
185
186
187
188
189
190
191
192
193
194
195
196
197
198
199
200
201
202
203
204
205
206
207
208
209
210
211
212
213
214
215
216
217
218
219
220
221
222
223
224
225
226
227
228
229
230
231
232
233
234
235
236
237
238
239
240
241
242
243
244
245
246
247
248
249
250
251
252
253
254
255
256
257
258
259
260
261
262
263
264
265
266
267
268
269
270
271
272
273
274
275
276
277
278
279
280
281
282
283
284
285
286
287
288
289
290
291
292
293
294
295
296
297
298
299
300
301
302
303
304
305
306
307
308
309
310
311
312
313
314
315
316
317
318
319
320
321
322
323
324
        </DataArray>
      </Verts>
      <PointData>
        <DataArray type="Float32" Name="color" format="ascii">
4.321523e-05
0.01569924
0.0001038681
0.01556828
0.01553187
0.01551645
0.01550166
0.01544387
0.0003784522
0.0003888765
0.01523407
0.01520221
0.000410601
0.0004545846
0.01515654
0.01515156
0.01506644
0.01474857
0.01464382
0.01458872
0.01446946
0.0143573
0.0007451833
0.0007948046
0.0008242074
0.000856793
0.01424215
0.0008879937
0.0009053862
0.0009567128
0.00104131
0.001087186
0.01415015
0.01412244
0.01385234
0.001323388
0.01383143
0.001460789
0.001484556
0.001487242
0.01380226
0.001578936
0.001592484
0.00166633
0.01351911
0.01350822
0.001801968
0.01331907
0.001900801
0.002089086
0.01315277
0.01308009
0.002367735
0.002375201
0.002380155
0.002415816
0.01303465
0.002502351
0.01302765
0.01288225
0.002561789
0.01277453
0.01263768
0.01259648
0.002622577
0.002707444
0.01259035
0.002721027
0.01244163
0.01233653
0.01230126
0.002815565
0.002827794
0.01204129
0.01168069
0.002885845
0.002907713
0.01150756
0.002939691
0.01127331
0.00303008
0.00305258
0.01124906
0.003076084
0.01123781
0.0110328
0.01100688
0.003178707
0.003281973
0.01094925
0.003398059
0.003423373
0.01080081
0.003459675
0.01050395
0.01020039
0.003509494
0.01018024
0.01014737
0.01006723
0.00381478
0.009966834
0.003965853
0.009800356
0.003995945
0.009651257
0.00412504
0.004161609
0.004201937
0.009511674
0.004252333
0.009485004
0.00935241
0.009272298
0.009094523
0.004509077
0.009073435
0.004668282
0.009063954
0.008968937
0.004921379
0.008923857
0.008877054
0.005086143
0.005108023
0.008800264
0.005213547
0.005256718
0.008778665
0.005269131
0.008629071
0.008568615
0.005327762
0.008419503
0.00543489
0.005443154
0.005460362
0.008375633
0.008118881
0.005498006
0.007933085
0.005544308
0.005621903
0.007907024
0.005718712
0.005766755
0.005785329
0.007875356
0.005934143
0.005938531
0.005990157
0.007795565
0.007678726
0.00613772
0.007677029
0.00620946
0.006293382
0.007487101
0.007476722
0.006548624
0.007328107
0.007301057
0.007173833
0.006761184
0.006763367
0.00705367
0.007013685
0.01606419
0.01617748
0.0162189
0.01626676
0.01645858
0.0165302
0.01656069
0.01685439
0.01693469
0.01693724
0.01699511
0.01706626
0.0171441
0.01727614
0.01743884
0.0174566
0.01749839
0.0175963
0.01764793
0.01778804
0.01783549
0.01799768
0.01805924
0.01813126
0.01829083
0.01845426
0.01847796
0.0184814
0.01879423
0.01921731
0.01930972
0.01932783
0.0195057
0.01976632
0.02089406
0.02099288
0.020994
0.02118377
0.02120763
0.02129267
0.02145301
0.0214605
0.02168708
0.02199599
0.02201642
0.02206
0.02213358
0.0223093
0.02253044
0.0225586
0.0225663
0.02258063
0.02260197
0.02262084
0.02267695
0.02281886
0.02284652
0.0228814
0.02294512
0.02306939
0.02316176
0.02319138
0.02334254
0.02355085
0.02358739
0.02359501
0.02376187
0.02400885
0.02404184
0.02415487
0.02423384
0.02437863
0.02454563
0.02482772
0.02485345
0.02490178
0.02497038
0.0250418
0.02512324
0.02530881
0.02545024
0.02570735
0.02577133
0.02602697
0.02629722
0.02663797
0.02675833
0.02678255
0.02722143
0.02731152
0.02746203
0.02751157
0.02753387
0.02764649
0.02783142
0.02783273
0.0279075
0.02807589
0.02813268
0.0283292
0.02842918
0.02849518
0.02858457
0.02859574
0.02870185
0.02886064
0.02889001
0.02897126
0.02908302
0.02913974
0.02930348
0.02935684
0.02942346
0.02949671
0.02961753
0.02971674
0.03004174
0.03004693
0.03027381
0.03032403
0.0303808
0.03050509
0.03052372
0.03062832
0.03063366
0.0307031
0.03071222
0.03102663
0.03104449
0.03107135
0.03112331
0.03131382
0.03145279
0.03188446
0.03192794
0.03198927
0.03200717
0.03204798
0.03233751
0.03244818
0.03260176
0.03262502
0.03269767
0.03274706
0.03285811
0.03286782
0.03297439
0.03309523
0.03311718
0.0331283
0.03314829
0.03325918
0.03327347
0.03328261
0.03336784
0.03347687
0.03403325
        </DataArray>
        <DataArray type="Float32" Name="normal" NumberOfComponents="3" format="ascii">
0.8523235 0.0002314308 -0.5230148
-0.7700279 -0.07620382 -0.633443
-0.1143888 -7.465269e-05 -0.993436
-0.6913784 -0.06784604 -0.7193003
-0.3839017 -0.0375842 -0.9226087
0.008108473 0.0007930314 -0.9999668
0.2552647 0.02494166 -0.9665495
0.9251227 0.09005367 -0.3688338
0.8176025 0.001944169 -0.5757799
-0.7469546 -0.0018251 -0.6648725
-0.8106856 -0.07783548 -0.5802849
-0.4951835 -0.04744347 -0.867492
0.8404643 0.002168304 -0.5418626
0.9836071 0.002809425 -0.1803032
-0.5494191 -0.05248068 -0.8338971
-0.6510328 -0.06216627 -0.7564996
0.4457438 0.04232295 -0.8941595
0.9602659 0.0892415 -0.2644341
-0.163588 -0.01509432 -0.9864133
0.8783089 0.08073524 -0.4712275
0.6121411 0.0558062 -0.7887769
0.7584977 0.06860998 -0.648054
-0.5876969 -0.00275169 -0.8090765
0.2622188 0.001309507 -0.9650075
-0.4775249 -0.002472956 -0.8786147
-0.2284069 -0.001229615 -0.973565
-0.8429767 -0.07563666 -0.5326061
-0.06592392 -0.0003678217 -0.9978246
0.9730444 0.005535426 -0.2305515
0.7578797 0.004555824 -0.6523784
0.09837834 0.0006436734 -0.9951489
0.7747823 0.005292615 -0.632206
-0.00662127 -0.0005902402 -0.9999779
0.911731 0.08111446 -0.4026996
0.9846821 0.08592065 -0.1517196
0.2132438 0.001773183 -0.9769974
0.5341016 0.04653353 -0.8441387
-0.8713659 -0.007997975 -0.4905686
0.896486 0.008362432 -0.4429932
-0.04921758 -0.0004599329 -0.998788
0.6552278 0.05696563 -0.7532805
0.4765393 0.004727783 -0.8791404
0.6102004 0.00610579 -0.7922236
-0.6533602 -0.006840841 -0.7570162
-0.6902927 -0.05877702 -0.7211389
-0.9945584 -0.08461605 -0.06077627
-0.7646425 -0.008657729 -0.6443965
0.9898013 0.08302658 -0.115758
0.1921622 0.00229512 -0.9813605
0.6508132 0.008543138 -0.7591898
0.1938816 0.0160592 -0.9808935
-0.4821222 -0.03971248 -0.8752035
-0.4164717 -0.006196273 -0.9091276
-0.7793248 -0.01163137 -0.6265122
-0.7476775 -0.01118231 -0.6639679
-0.9780857 -0.01484752 -0.2076727
-0.9701108 -0.07962935 -0.2292254
0.5493221 0.008637559 -0.835566
-0.02136849 -0.001753038 -0.9997701
-0.3416786 -0.02771656 -0.9394081
0.8856394 0.01425666 -0.4641548
0.9551889 0.07683305 -0.285851
0.7847022 0.06244047 -0.6167201
-0.5710372 -0.04528993 -0.8196739
-0.3838276 -0.006325338 -0.9233831
0.3025889 0.005147948 -0.9531073
-0.2350844 -0.01863583 -0.9717963
0.9914102 0.01695151 -0.1296861
0.9899271 0.07754368 -0.118454
-0.70107 -0.05445091 -0.7110105
0.3123082 0.02418683 -0.9496729
0.2749098 0.004863859 -0.9614577
0.8117297 0.01442397 -0.5838552
-0.6495222 -0.0492353 -0.7587468
0.7536358 0.05541034 -0.6549525
0.487045 0.008832215 -0.8733322
0.2426402 0.004433457 -0.9701062
-0.9605666 -0.06957421 -0.2692047
-0.8302931 -0.01533777 -0.557116
0.9403269 0.06671713 -0.3336678
-0.4083982 -0.007776252 -0.9127707
-0.269423 -0.005168146 -0.9630081
-0.5091869 -0.03604935 -0.8599007
0.1122534 0.002169861 -0.9936773
0.5976585 0.04227048 -0.8006358
-0.9603868 -0.06668192 -0.270575
-0.9880289 -0.06843951 -0.138257
0.9359491 0.01869564 -0.3516386
-0.2085937 -0.004302072 -0.9779929
0.2925782 0.02016008 -0.9560291
-0.2238793 -0.004780691 -0.9746051
0.9911935 0.02132355 -0.1306931
0.5489396 0.03731027 -0.8350289
-0.971489 -0.02112134 -0.2361418
-0.4092352 -0.02704809 -0.9120279
-0.5208923 -0.03343026 -0.8529675
-0.6352015 -0.01400898 -0.7722194
0.6435193 0.04121852 -0.7643192
-0.7730708 -0.0493562 -0.6323966
-0.9349532 -0.05921881 -0.3497937
-0.410006 -0.009829302 -0.9120299
0.214007 0.01341941 -0.9767399
-0.8182258 -0.02039293 -0.5745351
0.9936628 0.06126468 -0.09423777
-0.9717494 -0.0244031 -0.2347501
0.6561997 0.03984122 -0.7535348
-0.4410184 -0.01143305 -0.8974252
0.8851307 0.02314982 -0.4647663
0.211103 0.005574742 -0.9774479
-0.7858087 -0.04701876 -0.6166797
-0.9827932 -0.02626471 -0.1828326
-0.9854624 -0.05879928 -0.1593939
-0.7702371 -0.04531356 -0.6361457
0.9608812 0.05604395 -0.2712311
0.9325615 0.05334704 -0.3570478
0.8458474 0.02397043 -0.5328862
0.8858049 0.05055458 -0.461296
0.40826 0.01197839 -0.9127871
-0.2798936 -0.01595734 -0.9598984
-0.8853801 -0.04994715 -0.4621768
-0.9426721 -0.02915854 -0.332444
-0.9113127 -0.05115115 -0.408525
0.6058686 0.03382812 -0.7948452
-0.6066493 -0.0193934 -0.794733
0.00535068 0.0001717872 -0.9999857
0.2879295 0.01593693 -0.957519
-0.9609011 -0.03148816 -0.2750957
-0.4765898 -0.01574698 -0.8789847
-0.9788848 -0.05404813 -0.197138
0.5048004 0.0167185 -0.8630742
-0.440993 -0.02393324 -0.8971914
0.9982423 0.05379555 -0.02486909
0.7407258 0.02480529 -0.6713494
0.9946439 0.05266709 -0.08893675
-0.5885264 -0.02010507 -0.808228
0.008822898 0.0003018639 -0.999961
0.6878932 0.02360982 -0.7254279
-0.9971491 -0.05252412 -0.05417492
-0.1232244 -0.006291435 -0.9923589
0.009641476 0.0003331973 -0.9999534
-0.9812853 -0.04895275 -0.1862333
-0.06601857 -0.002300748 -0.9978157
0.8669244 0.03063551 -0.4974973
0.1350162 0.006713306 -0.9908206
-0.9033849 -0.03247416 -0.4275992
0.1182766 0.004287461 -0.9929714
0.5385827 0.01958627 -0.842345
0.412146 0.0204106 -0.9108891
-0.6042855 -0.02254143 -0.7964489
-0.800494 -0.02988262 -0.5985953
-0.2648305 -0.009972207 -0.9642434
0.7450349 0.03652176 -0.6660249
-0.8525075 -0.04116275 -0.5210918
-0.7837985 -0.03024174 -0.6202785
0.7751133 0.03741754 -0.6307133
-0.9862462 -0.03849812 -0.1607366
-0.9559368 -0.03781983 -0.2911262
0.9955485 0.04686801 -0.08177182
0.9850619 0.04630995 -0.1658568
-0.7226369 -0.02975056 -0.6905873
0.7373521 0.03397455 -0.6746538
0.9868788 0.04530376 -0.1549765
-0.8022535 -0.03618571 -0.5958858
-0.3579395 -0.01521506 -0.9336208
0.1400185 0.005953738 -0.990131
0.8926305 0.03958688 -0.4490475
0.7646468 0.0337185 -0.6435669
0.9769676 0.0989458 -0.1890611
0.5598174 0.05710004 -0.8266463
0.7737062 0.07911967 -0.6285847
-0.9459386 -0.09701966 -0.3094954
0.5295815 0.0549613 -0.8464766
-0.9210254 -0.09600529 -0.3774855
-0.9808115 -0.1024272 -0.1658838
-0.8106917 -0.08617405 -0.5790967
-0.5087739 -0.05434071 -0.8591835
0.3233372 0.03453997 -0.9456533
-0.9935288 -0.1064975 -0.03948148
0.2240158 0.02411381 -0.9742872
-0.9490138 -0.1026246 -0.2980622
0.0180084 0.001962511 -0.9998359
-0.1219135 -0.01341196 -0.9924501
-0.2009765 -0.02213255 -0.979346
0.01429125 0.001577623 -0.9998966
0.313324 0.03478319 -0.9490091
0.2591758 0.02885714 -0.965399
-0.7180987 -0.08059458 -0.6912588
0.591657 0.06658221 -0.8034356
-0.5836996 -0.06628916 -0.8092592
-0.979787 -0.1116556 -0.1659833
0.7649775 0.08752681 -0.6380818
-0.6127534 -0.07073215 -0.7871025
0.9863328 0.1148821 -0.1181093
-0.6119612 -0.07136993 -0.787661
-0.2532392 -0.02953956 -0.9669526
0.9674308 0.1147756 -0.2256196
-0.8235979 -0.09993223 -0.558301
0.4886166 0.05957476 -0.8704623
0.9691088 0.1182709 -0.2164257
-0.9745441 -0.1200397 -0.1893523
0.614617 0.07672755 -0.7850853
-0.6993672 -0.09234495 -0.7087721
-0.6510486 -0.08637621 -0.7541053
0.9802218 0.1300555 -0.1491669
0.9724398 0.1302031 -0.1934115
-0.4966464 -0.06657335 -0.8653961
0.8848358 0.1190898 -0.4504257
-0.9845644 -0.1335223 -0.1131579
-0.0208975 -0.002835029 -0.9997776
0.832836 0.1141932 -0.5416125
-0.9653137 -0.134267 -0.2239234
0.9561617 0.1331191 -0.2608334
-0.7961735 -0.1110675 -0.5947872
-0.7603119 -0.1064231 -0.6407807
0.3939529 0.05558627 -0.9174483
0.7266056 0.1035531 -0.6792062
0.9140643 0.130434 -0.3840227
0.6784579 0.09684721 -0.7282277
0.9252757 0.1321645 -0.355524
-0.8813597 -0.1260122 -0.4553307
-0.3576248 -0.05117459 -0.9324622
-0.9866993 -0.1415475 -0.0799292
0.6306896 0.09104993 -0.7706754
-0.7435939 -0.1074814 -0.6599363
0.9145803 0.1324009 -0.3821164
-0.1508207 -0.02189549 -0.9883186
-0.9721944 -0.1419141 -0.1862753
-0.8080931 -0.1184388 -0.577025
-0.9166835 -0.1345287 -0.376289
0.9869635 0.1458004 -0.06815707
0.1172702 0.01748076 -0.9929462
-0.9881938 -0.147536 -0.0413058
-0.7538879 -0.1125913 -0.6472838
-0.8934152 -0.1343871 -0.4286599
0.3775234 0.05738614 -0.9242201
-0.9815043 -0.1494035 -0.1196992
0.9307348 0.1423518 -0.3368511
0.09508768 0.01459154 -0.995362
-0.7835604 -0.1209698 -0.6094255
0.5740455 0.08924069 -0.8139458
0.4319061 0.06792804 -0.8993569
-0.632002 -0.09950284 -0.7685523
-0.5767998 -0.09099127 -0.8118021
0.2678691 0.0423752 -0.962523
0.4604541 0.07305273 -0.8846725
0.8092503 0.1288151 -0.5731671
-0.8316665 -0.1333777 -0.5390187
-0.5676159 -0.0915483 -0.8181877
-0.7128427 -0.1161532 -0.6916385
0.6907515 0.1128386 -0.7142338
-0.9350747 -0.1542927 -0.3191067
0.9859482 0.1644074 -0.02960232
-0.4303586 -0.0727099 -0.8997248
0.9809693 0.1664997 -0.09988534
0.3863596 0.06563724 -0.9200098
-0.8932187 -0.1542811 -0.4223242
0.9457371 0.1639037 -0.2805654
0.9840584 0.1715038 -0.04706819
-0.1315713 -0.02297273 -0.9910405
0.6932158 0.1211376 -0.7104769
0.9463776 0.166067 -0.2771122
0.6092881 0.1076457 -0.7856084
-0.9284667 -0.1640443 -0.3332252
0.9727578 0.1723411 -0.155051
-0.9588555 -0.1709245 -0.226674
0.7649377 0.1366386 -0.6294444
0.8103531 0.1457838 -0.5675164
-0.9696649 -0.1750732 -0.1705852
-0.7570772 -0.1370146 -0.6387966
0.9824978 0.1783808 -0.05365161
-0.173501 -0.03151317 -0.9843294
0.8877455 0.1618536 -0.4309424
-0.6268397 -0.1149316 -0.7706249
0.9333366 0.1713061 -0.3154947
-0.7197604 -0.1324858 -0.6814635
-0.954434 -0.1763751 -0.2407228
0.4587164 0.0849378 -0.8845139
0.3524402 0.06563435 -0.9335299
0.5181215 0.09666865 -0.8498266
-0.1230157 -0.02300498 -0.992138
0.9668701 0.1812735 -0.1797277
0.02031257 0.003824263 -0.9997864
-0.8103971 -0.1530972 -0.5655243
-0.5328667 -0.1017946 -0.8400541
-0.9404396 -0.1796859 -0.2885936
-0.8983608 -0.1729738 -0.4037672
0.3392668 0.06543475 -0.9384116
-0.8848827 -0.1709957 -0.4332934
0.8552833 0.1659688 -0.4908613
0.5158823 0.1001703 -0.8507828
0.5803238 0.1130789 -0.806497
-0.9644308 -0.1879576 -0.1858632
-0.9788113 -0.1912035 -0.0732781
-0.355371 -0.06944022 -0.9321424
0.5055143 0.0998157 -0.8570251
0.9156423 0.1809038 -0.358989
-0.8439899 -0.1668954 -0.5097322
-0.7533746 -0.1492322 -0.6404345
0.9045926 0.1803118 -0.3862639
0.9445353 0.1891312 -0.2684817
0.842916 0.1711624 -0.5100942
-0.6468373 -0.1315307 -0.7511998
0.550373 0.1121361 -0.8273543
0.971692 0.1980918 -0.1287414
-0.05701413 -0.01163829 -0.9983056
-0.9016038 -0.1857534 -0.3906486
-0.2987075 -0.06175794 -0.9523444
-0.716186 -0.1487926 -0.6818638
0.9506976 0.1976589 -0.2389665
0.4292587 0.08945135 -0.898741
0.1108343 0.02313216 -0.9935697
0.3929033 0.08228876 -0.9158906
-0.04981929 -0.01043721 -0.9987037
0.8325456 0.1750015 -0.5255876
-0.4269151 -0.09007628 -0.8997943
0.5568632 0.1175747 -0.8222405
0.7672438 0.1620499 -0.6205455
-0.9725958 -0.20555 -0.1086585
-0.9332652 -0.1979172 -0.2997413
-0.9195065 -0.1950857 -0.3412467
0.708564 0.1503739 -0.689438
0.2701067 0.05747415 -0.9611135
0.8267236 0.176505 -0.5342041
-0.3529559 -0.07664695 -0.9324952
        </DataArray>
        <DataArray type="Float32" Name="domain" format="ascii">
1.0
1.0
1.0
1.0
1.0
1.0
1.0
1.0
1.0
1.0
1.0
1.0
1.0
1.0
1.0
1.0
1.0
1.0
1.0
1.0
1.0
1.0
1.0
1.0
1.0
1.0
1.0
1.0
1.0
1.0
1.0
1.0
1.0
1.0
1.0
1.0
1.0
1.0
1.0
1.0
1.0
1.0
1.0
1.0
1.0
1.0
1.0
1.0
1.0
1.0
1.0
1.0
1.0
1.0
1.0
1.0
1.0
1.0
1.0
1.0
1.0
1.0
1.0
1.0
1.0
1.0
1.0
1.0
1.0
1.0
1.0
1.0
1.0
1.0
1.0
1.0
1.0
1.0
1.0
1.0
1.0
1.0
1.0
1.0
1.0
1.0
1.0
1.0
1.0
1.0
1.0
1.0
1.0
1.0
1.0
1.0
1.0
1.0
1.0
1.0
1.0
1.0
1.0
1.0
1.0
1.0
1.0
1.0
1.0
1.0
1.0
1.0
1.0
1.0
1.0
1.0
1.0
1.0
1.0
1.0
1.0
1.0
1.0
1.0
1.0
1.0
1.0
1.0
1.0
1.0
1.0
1.0
1.0
1.0
1.0
1.0
1.0
1.0
1.0
1.0
1.0
1.0
1.0
1.0
1.0
1.0
1.0
1.0
1.0
1.0
1.0
1.0
1.0
1.0
1.0
1.0
1.0
1.0
1.0
1.0
1.0
1.0
1.0
1.0
1.0
1.0
1.0
1.0
1.0
1.0
1.0
1.0
1.0
1.0
1.0
1.0
1.0
1.0
1.0
1.0
1.0
1.0
1.0
1.0
1.0
1.0
1.0
1.0
1.0
1.0
1.0
1.0
1.0
1.0
1.0
1.0
1.0
1.0
1.0
1.0
1.0
1.0
1.0
1.0
1.0
1.0
1.0
1.0
1.0
1.0
1.0
1.0
1.0
1.0
1.0
1.0
1.0
1.0
1.0
1.0
1.0
1.0
1.0
1.0
1.0
1.0
1.0
1.0
1.0
1.0
1.0
1.0
1.0
1.0
1.0
1.0
1.0
1.0
1.0
1.0
1.0
1.0
1.0
1.0
1.0
1.0
1.0
1.0
1.0
1.0
1.0
1.0
1.0
1.0
1.0
1.0
1.0
1.0
1.0
1.0
1.0
1.0
1.0
1.0
1.0
1.0
1.0
1.0
1.0
1.0
1.0
1.0
1.0
1.0
1.0
1.0
1.0
1.0
1.0
1.0
1.0
1.0
1.0
1.0
1.0
1.0
1.0
1.0
1.0
1.0
1.0
1.0
1.0
1.0
1.0
1.0
1.0
1.0
1.0
1.0
1.0
1.0
1.0
1.0
1.0
1.0
1.0
1.0
1.0
1.0
1.0
1.0
1.0
1.0
1.0
1.0
1.0
1.0
1.0
1.0
1.0
1.0
1.0
1.0
        </DataArray>
      </PointData>
    </Piece>
  </PolyData>
</VTKFile>