<VTKFile type="PolyData" version="1.0" byte_order="LittleEndian" header_type="UInt64">
  <PolyData>
    <Piece NumberOfPoints="167" NumberOfVerts="167">
      <Points>
        <DataArray type="Float32" Name="Points" NumberOfComponents="3" format="ascii">
0.930802 0.500117 0.4320081
0.8379135 0.5143685 0.371283
0.8051294 0.5001991 0.3708533
0.7731792 0.5116121 0.3786293
0.7257863 0.5092955 0.4102237
0.6954781 0.5077337 0.4621536
0.6915445 0.5074769 0.4791043
0.7178683 0.5084062 0.4193638
0.9262874 0.5010136 0.4251486
0.7228949 0.5005446 0.4135666
0.7853454 0.5107447 0.3746484
0.715713 0.5080526 0.4221826
0.9292593 0.5011075 0.4295579
0.9478676 0.5012792 0.4765606
0.7412205 0.5089982 0.3964616
0.8898044 0.5141758 0.3904952
0.8351659 0.5121496 0.3709137
0.7023534 0.507274 0.4444121
0.9325005 0.5152838 0.4353254
0.8112234 0.5108461 0.370284
0.8210624 0.5110955 0.3700061
0.9092377 0.5140458 0.4056944
0.7435959 0.5011405 0.39482
0.8540844 0.5017683 0.374549
0.7579175 0.5013357 0.3857801
0.7903025 0.5015628 0.3734366
0.8209598 0.5109812 0.3700051
0.8114249 0.5017376 0.3702828
0.9464906 0.50254 0.4700283
0.9185185 0.5025159 0.4151908
0.8327823 0.5021774 0.3706307
0.9207143 0.502874 0.4178132
0.743305 0.5083117 0.3949304
0.916115 0.5139348 0.4127246
0.8854487 0.5127657 0.3878004
0.8477106 0.5028913 0.3729903
0.7578688 0.5085202 0.385732
0.706709 0.5018973 0.4362261
0.9365293 0.504072 0.4424109
0.8135877 0.5029305 0.3701576
0.6949112 0.5063871 0.4642376
0.8819343 0.5037892 0.3857118
0.89931 0.5039956 0.3970109
0.7350456 0.502461 0.4015879
0.8205308 0.5102909 0.3700019
0.7409722 0.5077034 0.3966847
0.7205759 0.5024975 0.4162285
0.6972997 0.5061029 0.4567823
0.8449583 0.5041201 0.3724231
0.9045781 0.5053108 0.4013053
0.8729361 0.510942 0.3813377
0.9298317 0.512181 0.4307248
0.7658232 0.5039549 0.3818134
0.7186521 0.5032634 0.4185534
0.7227662 0.5033317 0.4136842
0.692812 0.5029269 0.4730026
0.6921227 0.5051344 0.4762318
0.8913723 0.5061539 0.3913764
0.8473319 0.5091722 0.3729318
0.9349576 0.5113759 0.4395804
0.9350916 0.5070039 0.4396599
0.7625601 0.5068067 0.3833347
0.6935717 0.5048611 0.4694825
0.7135313 0.5053219 0.4253104
0.770059 0.5044505 0.3799602
0.8592902 0.5061126 0.3760961
0.7666073 0.5063915 0.3814361
0.9488366 0.5076744 0.4831408
0.737346 0.5052345 0.3996115
0.6936308 0.5042098 0.4693016
0.9487811 0.5096546 0.4830099
0.8556882 0.5062931 0.3750105
0.9254743 0.5075604 0.4240988
0.7908227 0.5062102 0.3733013
0.7928147 0.5060391 0.3728609
0.8832632 0.5069502 0.3864668
0.8514898 0.5064223 0.3738862
0.9416096 0.5088212 0.454287
0.7120073 0.5039163 0.4275749
0.8345332 0.5064665 0.370822
0.7668502 0.5050811 0.3813398
0.7849162 0.5054653 0.374809
0.9190934 0.5184807 0.4163363
0.9357277 0.5193239 0.4416238
0.715382 0.5097148 0.4225349
0.9479576 0.520564 0.4798531
0.9155166 0.5191455 0.412295
0.947705 0.5210476 0.4784386
0.9490672 0.521141 0.4893697
0.9203925 0.5202939 0.4180073
0.7088016 0.5100818 0.4322581
0.9164708 0.5204155 0.4134168
0.8731873 0.5184813 0.3815844
0.8371572 0.5167642 0.3711933
0.6920354 0.50958 0.4757897
0.8035645 0.515499 0.3709933
0.6899276 0.5100043 0.4929573
0.948856 0.5237672 0.4884382
0.9493078 0.5242133 0.496767
0.7622007 0.51423 0.3833651
0.6922583 0.5106153 0.4743721
0.8569418 0.5197568 0.3755226
0.8982652 0.5222368 0.3966701
0.7010264 0.5112835 0.4468918
0.7043926 0.5115305 0.439917
0.783095 0.5161399 0.3752132
0.9346347 0.5248054 0.4400315
0.9407107 0.5252108 0.4535838
0.9443716 0.5259182 0.4647399
0.7193168 0.5129026 0.4173011
0.6913218 0.5114155 0.4792788
0.7172736 0.5130005 0.4198316
0.9047178 0.5245725 0.4020405
0.9485697 0.5276567 0.4877491
0.8471936 0.521771 0.3730238
0.6978161 0.5125294 0.4545268
0.7188506 0.5139724 0.4177884
0.9030031 0.525813 0.4006385
0.751627 0.5161491 0.3891142
0.7661027 0.5175878 0.3814364
0.8906256 0.52655 0.3914463
0.8572782 0.5246182 0.3757162
0.6907913 0.5132159 0.4820266
0.6943812 0.5134963 0.4648252
0.8968982 0.5280713 0.3959174
0.7530067 0.5179123 0.3882129
0.9414401 0.5313206 0.4566232
0.6942902 0.5140725 0.4650034
0.9171112 0.5306677 0.4148562
0.7346467 0.5177867 0.4013629
0.8596447 0.5278528 0.3765425
0.7279 0.5177006 0.4075686
0.9477133 0.5350706 0.484601
0.7884383 0.5228654 0.3736665
0.7447634 0.5194126 0.3934424
0.921003 0.5335001 0.4198264
0.9431443 0.5356454 0.4628394
0.7745341 0.5222698 0.377877
0.8161507 0.5259365 0.3700299
0.692813 0.5158266 0.4702007
0.7562441 0.5211068 0.3862236
0.8441125 0.5285028 0.3724838
0.9475542 0.5375417 0.4849515
0.6895555 0.5161272 0.4920991
0.7291082 0.5195081 0.406252
0.903977 0.5351219 0.4020735
0.8882256 0.5338241 0.390262
0.9467974 0.5389863 0.4802764
0.9372661 0.5389025 0.4476491
0.8178753 0.5283364 0.3700029
0.7091327 0.5187646 0.4307612
0.9173036 0.5377473 0.415753
0.8982568 0.5363073 0.397459
0.9328368 0.5397869 0.4387404
0.79738 0.5274394 0.3717663
0.9434615 0.5412127 0.4656236
0.876514 0.5357496 0.3837593
0.7339168 0.5223364 0.401655
0.7471256 0.5236055 0.3915934
0.7541674 0.5243518 0.387226
0.7131461 0.5204645 0.424563
0.9387605 0.54271 0.4520516
0.8516678 0.5343611 0.3743486
0.8195345 0.5312514 0.3700043
0.7685702 0.5262932 0.3800609
0.7285911 0.522432 0.406491
0.7183408 0.5216075 0.4176524
        </DataArray>
      </Points>
      <Verts>
        <DataArray type="Int64" Name="connectivity" format="ascii">
0
1
2
3
4
5
6
7
8
9
10
11
12
13
14
15
16
17
18
19
20
21
22
23
24
25
26
27
28
29
30
31
32
33
34
35
36
37
38
39
40
41
42
43
44
45
46
47
48
49
50
51
52
53
54
55
56
57
58
59
60
61
62
63
64
65
66
67
68
69
70
71
72
73
74
75
76
77
78
79
80
81
82
83
84
85
86
87
88
89
90
91
92
93
94
95
96
97
98
99
100
101
102
103
104
105
106
107
108
109
110
111
112
113
114
115
116
117
118
119
120
121
122
123
124
125
126
127
128
129
130
131
132
133
134
135
136
137
138
139
140
141
142
143
144
145
146
147
148
149
150
151
152
153
154
155
156
157
158
159
160
161
162
163
164
165
166
        </DataArray>
                <DataArray type="Int64" Name="offsets" format="ascii">
1
2
3
4
5
6
7
8
9
10
11
12
13
14
15
16
17
18
19
20
21
22
23
24
25
26
27
28
29
30
31
32
33
34
35
36
37
38
39
40
41
42
43
44
45
46
47
48
49
50
51
52
53
54
55
56
57
58
59
60
61
62
63
64
65
66
67
68
69
70
71
72
73
74
75
76
77
78
79
80
81
82
83
84
85
86
87
88
89
90
91
92
93
94
95
96
97
98
99
100
101
102
103
104
105
106
107
108
109
110
111
112
113
114
115
116
117
118
119
120
121
122
123
124
125
126
127
128
129
130
131
132
133
134
135
136
137
138
139
140
141
142
143
144
145
146
147
148
149
150
151
152
153
154
155
156
157
158
159
160
161
162
163
164
165
166
167
        </DataArray>
      </Verts>
      <PointData>
        <DataArray type="Float32" Name="color" format="ascii">
4.321523e-05
0.006763367
0.0001038681
0.006761184
0.006548624
0.006293382
0.00620946
0.00613772
0.0003784522
0.0003888765
0.005990157
0.005938531
0.000410601
0.0004545846
0.005934143
0.005785329
0.005766755
0.005718712
0.005621903
0.005544308
0.005498006
0.005460362
0.0007451833
0.0007948046
0.0008242074
0.000856793
0.005443154
0.0008879937
0.0009053862
0.0009567128
0.00104131
0.001087186
0.00543489
0.005327762
0.005269131
0.001323388
0.005256718
0.001460789
0.001484556
0.001487242
0.005213547
0.001578936
0.001592484
0.00166633
0.005108023
0.005086143
0.001801968
0.004921379
0.001900801
0.002089086
0.004668282
0.004509077
0.002367735
0.002375201
0.002380155
0.002415816
0.004252333
0.002502351
0.004201937
0.004161609
0.002561789
0.00412504
0.003995945
0.003965853
0.002622577
0.002707444
0.00381478
0.002721027
0.003509494
0.003459675
0.003423373
0.002815565
0.002827794
0.003398059
0.003281973
0.002885845
0.002907713
0.003178707
0.002939691
0.003076084
0.00303008
0.00305258
0.007013685
0.00705367
0.007173833
0.007301057
0.007328107
0.007476722
0.007487101
0.007677029
0.007678726
0.007795565
0.007875356
0.007907024
0.007933085
0.008118881
0.008375633
0.008419503
0.008568615
0.008629071
0.008778665
0.008800264
0.008877054
0.008923857
0.008968937
0.009063954
0.009073435
0.009094523
0.009272298
0.00935241
0.009485004
0.009511674
0.009651257
0.009800356
0.009966834
0.01006723
0.01014737
0.01018024
0.01020039
0.01050395
0.01080081
0.01094925
0.01100688
0.0110328
0.01123781
0.01124906
0.01127331
0.01150756
0.01168069
0.01204129
0.01230126
0.01233653
0.01244163
0.01259035
0.01259648
0.01263768
0.01277453
0.01288225
0.01302765
0.01303465
0.01308009
0.01315277
0.01331907
0.01350822
0.01351911
0.01380226
0.01383143
0.01385234
0.01412244
0.01415015
0.01424215
0.0143573
0.01446946
0.01458872
0.01464382
0.01474857
0.01506644
0.01515156
0.01515654
0.01520221
0.01523407
0.01544387
0.01550166
0.01551645
0.01553187
0.01556828
0.01569924
        </DataArray>
        <DataArray type="Float32" Name="normal" NumberOfComponents="3" format="ascii">
0.8523235 0.0002314308 -0.5230148
0.1400185 0.005953738 -0.990131
-0.1143888 -7.465269e-05 -0.993436
-0.3579395 -0.01521506 -0.9336208
-0.7226369 -0.02975056 -0.6905873
-0.9559368 -0.03781983 -0.2911262
-0.9862462 -0.03849812 -0.1607366
-0.7837985 -0.03024174 -0.6202785
0.8176025 0.001944169 -0.5757799
-0.7469546 -0.0018251 -0.6648725
-0.2648305 -0.009972207 -0.9642434
-0.800494 -0.02988262 -0.5985953
0.8404643 0.002168304 -0.5418626
0.9836071 0.002809425 -0.1803032
-0.6042855 -0.02254143 -0.7964489
0.5385827 0.01958627 -0.842345
0.1182766 0.004287461 -0.9929714
-0.9033849 -0.03247416 -0.4275992
0.8669244 0.03063551 -0.4974973
-0.06601857 -0.002300748 -0.9978157
0.009641476 0.0003331973 -0.9999534
0.6878932 0.02360982 -0.7254279
-0.5876969 -0.00275169 -0.8090765
0.2622188 0.001309507 -0.9650075
-0.4775249 -0.002472956 -0.8786147
-0.2284069 -0.001229615 -0.973565
0.008822898 0.0003018639 -0.999961
-0.06592392 -0.0003678217 -0.9978246
0.9730444 0.005535426 -0.2305515
0.7578797 0.004555824 -0.6523784
0.09837834 0.0006436734 -0.9951489
0.7747823 0.005292615 -0.632206
-0.5885264 -0.02010507 -0.808228
0.7407258 0.02480529 -0.6713494
0.5048004 0.0167185 -0.8630742
0.2132438 0.001773183 -0.9769974
-0.4765898 -0.01574698 -0.8789847
-0.8713659 -0.007997975 -0.4905686
0.896486 0.008362432 -0.4429932
-0.04921758 -0.0004599329 -0.998788
-0.9609011 -0.03148816 -0.2750957
0.4765393 0.004727783 -0.8791404
0.6102004 0.00610579 -0.7922236
-0.6533602 -0.006840841 -0.7570162
0.00535068 0.0001717872 -0.9999857
-0.6066493 -0.0193934 -0.794733
-0.7646425 -0.008657729 -0.6443965
-0.9426721 -0.02915854 -0.332444
0.1921622 0.00229512 -0.9813605
0.6508132 0.008543138 -0.7591898
0.40826 0.01197839 -0.9127871
0.8458474 0.02397043 -0.5328862
-0.4164717 -0.006196273 -0.9091276
-0.7793248 -0.01163137 -0.6265122
-0.7476775 -0.01118231 -0.6639679
-0.9780857 -0.01484752 -0.2076727
-0.9827932 -0.02626471 -0.1828326
0.5493221 0.008637559 -0.835566
0.211103 0.005574742 -0.9774479
0.8851307 0.02314982 -0.4647663
0.8856394 0.01425666 -0.4641548
-0.4410184 -0.01143305 -0.8974252
-0.9717494 -0.0244031 -0.2347501
-0.8182258 -0.02039293 -0.5745351
-0.3838276 -0.006325338 -0.9233831
0.3025889 0.005147948 -0.9531073
-0.410006 -0.009829302 -0.9120299
0.9914102 0.01695151 -0.1296861
-0.6352015 -0.01400898 -0.7722194
-0.971489 -0.02112134 -0.2361418
0.9911935 0.02132355 -0.1306931
0.2749098 0.004863859 -0.9614577
0.8117297 0.01442397 -0.5838552
-0.2238793 -0.004780691 -0.9746051
-0.2085937 -0.004302072 -0.9779929
0.487045 0.008832215 -0.8733322
0.2426402 0.004433457 -0.9701062
0.9359491 0.01869564 -0.3516386
-0.8302931 -0.01533777 -0.557116
0.1122534 0.002169861 -0.9936773
-0.4083982 -0.007776252 -0.9127707
-0.269423 -0.005168146 -0.9630081
0.7646468 0.0337185 -0.6435669
0.8926305 0.03958688 -0.4490475
-0.8022535 -0.03618571 -0.5958858
0.9868788 0.04530376 -0.1549765
0.7373521 0.03397455 -0.6746538
0.9850619 0.04630995 -0.1658568
0.9955485 0.04686801 -0.08177182
0.7751133 0.03741754 -0.6307133
-0.8525075 -0.04116275 -0.5210918
0.7450349 0.03652176 -0.6660249
0.412146 0.0204106 -0.9108891
0.1350162 0.006713306 -0.9908206
-0.9812853 -0.04895275 -0.1862333
-0.1232244 -0.006291435 -0.9923589
-0.9971491 -0.05252412 -0.05417492
0.9946439 0.05266709 -0.08893675
0.9982423 0.05379555 -0.02486909
-0.440993 -0.02393324 -0.8971914
-0.9788848 -0.05404813 -0.197138
0.2879295 0.01593693 -0.957519
0.6058686 0.03382812 -0.7948452
-0.9113127 -0.05115115 -0.408525
-0.8853801 -0.04994715 -0.4621768
-0.2798936 -0.01595734 -0.9598984
0.8858049 0.05055458 -0.461296
0.9325615 0.05334704 -0.3570478
0.9608812 0.05604395 -0.2712311
-0.7702371 -0.04531356 -0.6361457
-0.9854624 -0.05879928 -0.1593939
-0.7858087 -0.04701876 -0.6166797
0.6561997 0.03984122 -0.7535348
0.9936628 0.06126468 -0.09423777
0.214007 0.01341941 -0.9767399
-0.9349532 -0.05921881 -0.3497937
-0.7730708 -0.0493562 -0.6323966
0.6435193 0.04121852 -0.7643192
-0.5208923 -0.03343026 -0.8529675
-0.4092352 -0.02704809 -0.9120279
0.5489396 0.03731027 -0.8350289
0.2925782 0.02016008 -0.9560291
-0.9880289 -0.06843951 -0.138257
-0.9603868 -0.06668192 -0.270575
0.5976585 0.04227048 -0.8006358
-0.5091869 -0.03604935 -0.8599007
0.9403269 0.06671713 -0.3336678
-0.9605666 -0.06957421 -0.2692047
0.7536358 0.05541034 -0.6549525
-0.6495222 -0.0492353 -0.7587468
0.3123082 0.02418683 -0.9496729
-0.70107 -0.05445091 -0.7110105
0.9899271 0.07754368 -0.118454
-0.2350844 -0.01863583 -0.9717963
-0.5710372 -0.04528993 -0.8196739
0.7847022 0.06244047 -0.6167201
0.9551889 0.07683305 -0.285851
-0.3416786 -0.02771656 -0.9394081
-0.02136849 -0.001753038 -0.9997701
-0.9701108 -0.07962935 -0.2292254
-0.4821222 -0.03971248 -0.8752035
0.1938816 0.0160592 -0.9808935
0.9898013 0.08302658 -0.115758
-0.9945584 -0.08461605 -0.06077627
-0.6902927 -0.05877702 -0.7211389
0.6552278 0.05696563 -0.7532805
0.5341016 0.04653353 -0.8441387
0.9846821 0.08592065 -0.1517196
0.911731 0.08111446 -0.4026996
-0.00662127 -0.0005902402 -0.9999779
-0.8429767 -0.07563666 -0.5326061
0.7584977 0.06860998 -0.648054
0.6121411 0.0558062 -0.7887769
0.8783089 0.08073524 -0.4712275
-0.163588 -0.01509432 -0.9864133
0.9602659 0.0892415 -0.2644341
0.4457438 0.04232295 -0.8941595
-0.6510328 -0.06216627 -0.7564996
-0.5494191 -0.05248068 -0.8338971
-0.4951835 -0.04744347 -0.867492
-0.8106856 -0.07783548 -0.5802849
0.9251227 0.09005367 -0.3688338
0.2552647 0.02494166 -0.9665495
0.008108473 0.0007930314 -0.9999668
-0.3839017 -0.0375842 -0.9226087
-0.6913784 -0.06784604 -0.7193003
-0.7700279 -0.07620382 -0.633443
        </DataArray>
        <DataArray type="Float32" Name="domain" format="ascii">
1.0
1.0
1.0
1.0
1.0
1.0
1.0
1.0
1.0
1.0
1.0
1.0
1.0
1.0
1.0
1.0
1.0
1.0
1.0
1.0
1.0
1.0
1.0
1.0
1.0
1.0
1.0
1.0
1.0
1.0
1.0
1.0
1.0
1.0
1.0
1.0
1.0
1.0
1.0
1.0
1.0
1.0
1.0
1.0
1.0
1.0
1.0
1.0
1.0
1.0
1.0
1.0
1.0
1.0
1.0
1.0
1.0
1.0
1.0
1.0
1.0
1.0
1.0
1.0
1.0
1.0
1.0
1.0
1.0
1.0
1.0
1.0
1.0
1.0
1.0
1.0
1.0
1.0
1.0
1.0
1.0
1.0
1.0
1.0
1.0
1.0
1.0
1.0
1.0
1.0
1.0
1.0
1.0
1.0
1.0
1.0
1.0
1.0
1.0
1.0
1.0
1.0
1.0
1.0
1.0
1.0
1.0
1.0
1.0
1.0
1.0
1.0
1.0
1.0
1.0
1.0
1.0
1.0
1.0
1.0
1.0
1.0
1.0
1.0
1.0
1.0
1.0
1.0
1.0
1.0
1.0
1.0
1.0
1.0
1.0
1.0
1.0
1.0
1.0
1.0
1.0
1.0
1.0
1.0
1.0
1.0
1.0
1.0
1.0
1.0
1.0
1.0
1.0
1.0
1.0
1.0
1.0
1.0
1.0
1.0
1.0
1.0
1.0
1.0
1.0
1.0
1.0
        </DataArray>
      </PointData>
    </Piece>
  </PolyData>
</VTKFile>