<VTKFile type="PolyData" version="1.0" byte_order="LittleEndian" header_type="UInt64">
  <PolyData>
    <Piece NumberOfPoints="496" NumberOfVerts="496">
      <Points>
        <DataArray type="Float32" Name="Points" NumberOfComponents="3" format="ascii">
0.89676 0.6335388 0.5846882
0.7950796 0.5991416 0.6297078
0.734537 0.5384605 0.6006066
0.91976 0.6408 0.5428213
0.7825152 0.5467165 0.6255699
0.7757313 0.5456314 0.6235243
0.9185084 0.5696797 0.5776395
0.8359498 0.6122168 0.6254218
0.9037223 0.5674056 0.5944649
0.8691663 0.5618339 0.6181124
0.7196385 0.5368956 0.586231
0.6914977 0.5321859 0.5327148
0.6881741 0.5316717 0.5145857
0.8728937 0.6245354 0.6074736
0.6923417 0.5326432 0.5360277
0.8154535 0.6052387 0.6293933
0.8605479 0.6201814 0.6152993
0.7128083 0.5361556 0.57781
0.9417807 0.5756764 0.521466
0.7119817 0.5363263 0.5767466
0.7541473 0.5436169 0.6141884
0.6925493 0.5330705 0.5369734
0.687552 0.5322502 0.508894
0.8919452 0.5676032 0.6042
0.8594254 0.6194596 0.6159636
0.9290903 0.5741704 0.5597537
0.7292908 0.5396968 0.5963277
0.8520092 0.5609593 0.6245494
0.9267182 0.6410847 0.5120885
0.9255758 0.640673 0.5214224
0.722256 0.5732243 0.5974951
0.9222285 0.6388714 0.537481
0.9363091 0.5762504 0.542311
0.7813938 0.5492236 0.6253843
0.6936537 0.5636841 0.5584009
0.8652798 0.6199902 0.6128803
0.8853571 0.6264381 0.5978665
0.9071937 0.6333933 0.5716291
0.814531 0.5557488 0.6299987
0.9117 0.6347816 0.5639184
0.9146187 0.5739294 0.5816518
0.9266845 0.639419 0.5169932
0.9343202 0.5778432 0.5469109
0.7899461 0.5520964 0.6274923
0.8966221 0.6294551 0.5863099
0.6947808 0.5631974 0.5601962
0.9277457 0.6387351 0.5090884
0.8964895 0.6275333 0.5871124
0.9398595 0.5798743 0.5275238
0.8380288 0.6084569 0.6251993
0.8162429 0.5574741 0.6299922
0.69593 0.5356262 0.5478905
0.8791002 0.5690284 0.6123901
0.910203 0.6315246 0.5680396
0.6876858 0.534286 0.5143256
0.9423881 0.5809885 0.5082131
0.9373741 0.5800792 0.5369288
0.7388466 0.5763901 0.6100297
0.8080418 0.5565366 0.6298214
0.9258498 0.6359985 0.5275891
0.8979675 0.573057 0.5986907
0.8728963 0.6190424 0.608613
0.938445 0.5808987 0.5326008
0.6872858 0.559765 0.5408667
0.8585546 0.5663188 0.6220967
0.9288092 0.6364091 0.502098
0.9285316 0.5795056 0.5589917
0.7598737 0.5482482 0.6174698
0.688408 0.5349962 0.520526
0.9060572 0.5755504 0.5908085
0.8949255 0.6255134 0.5893888
0.8953398 0.6249982 0.5891355
0.7760056 0.5515787 0.6239438
0.6970153 0.5622246 0.5635789
0.9230908 0.5792289 0.56857
0.9117737 0.6299805 0.5663356
0.8630986 0.614597 0.6149306
0.9422299 0.5832621 0.5001765
0.6852351 0.5580309 0.5324395
0.8541774 0.5669806 0.623545
0.8988741 0.5755528 0.597518
0.6877631 0.535576 0.516904
0.7174025 0.5412885 0.5845934
0.8588424 0.6121494 0.6173395
0.899561 0.6243335 0.5848873
0.6953297 0.5374434 0.5472379
0.8226485 0.5618964 0.6297197
0.853938 0.6098874 0.6197465
0.8738511 0.6159766 0.6086193
0.8547291 0.5684706 0.623273
0.9250706 0.6317219 0.5356649
0.7001974 0.5387338 0.5585074
0.8908623 0.5756462 0.6039135
0.8528339 0.5683446 0.6238881
0.6867034 0.5362002 0.5068479
0.8351822 0.6037141 0.6262837
0.7399722 0.5742105 0.6102927
0.7983539 0.5580196 0.6290045
0.7880745 0.5561133 0.627268
0.8238662 0.5999978 0.628611
0.6816735 0.5560255 0.505493
0.6827989 0.5563494 0.518247
0.8008742 0.5927236 0.6298975
0.7425467 0.5475034 0.6076734
0.7634321 0.5811265 0.6221977
0.7033694 0.562184 0.5733415
0.7787984 0.5550898 0.6249703
0.8986367 0.5787917 0.5971797
0.8113432 0.5946797 0.6298869
0.8594503 0.6091984 0.6174765
0.9000577 0.5794711 0.5958021
0.9268929 0.5849283 0.5601279
0.7313119 0.5697895 0.603707
0.8611867 0.5721647 0.6206841
0.6834455 0.5552086 0.5201623
0.8006698 0.5603507 0.6293144
0.71434 0.5430494 0.5813767
0.910799 0.5826696 0.5842147
0.9088873 0.5824001 0.5864301
0.6893598 0.538301 0.5286421
0.9104464 0.5830569 0.5845301
0.7801807 0.5840127 0.6270592
0.6864024 0.5378708 0.5073971
0.7618806 0.5784318 0.6213506
0.7373329 0.5705665 0.6079744
0.7962873 0.5603765 0.6287999
0.687399 0.5381999 0.5180045
0.9154869 0.6235154 0.5634617
0.6821739 0.5540974 0.5030794
0.7232862 0.5456007 0.5917425
0.7587306 0.5767273 0.6199448
0.7013549 0.541618 0.5617669
0.7718617 0.5805687 0.6247851
0.8633011 0.6067664 0.6160107
0.7226231 0.5651005 0.5956376
0.6863183 0.538751 0.5089066
0.6885515 0.5392557 0.5258432
0.8081706 0.5899962 0.6299958
0.909656 0.585467 0.5848668
0.708529 0.5435129 0.5738605
0.6989853 0.5580771 0.5647756
0.9348248 0.5908522 0.5383494
0.9211144 0.6228911 0.5530585
0.7755966 0.5577209 0.6241919
0.7211783 0.5644668 0.5941732
0.894448 0.6149013 0.5929927
0.8986981 0.5839766 0.5961936
0.8716176 0.578393 0.6154314
0.7966313 0.5861612 0.6295245
0.8607285 0.6046003 0.6175159
0.7205809 0.5636322 0.5933994
0.9285322 0.5905409 0.5545686
0.8048133 0.5644122 0.6297247
0.7264993 0.5651587 0.5989497
0.8232496 0.5927348 0.6289755
0.7934747 0.5839799 0.629161
0.9269642 0.6216315 0.5391933
0.8701108 0.6053586 0.61269
0.9358417 0.5928549 0.5334487
0.9242634 0.5904758 0.5628396
0.8996217 0.6136366 0.5882413
0.7187282 0.5467264 0.5872886
0.6857632 0.5399063 0.5005824
0.7564481 0.5554742 0.6165327
0.7923957 0.5831338 0.6290097
0.7878366 0.5627139 0.6274924
0.8400171 0.5741699 0.626946
0.8393757 0.5964603 0.6257894
0.7892673 0.5632528 0.6277846
0.7459799 0.5698067 0.6129808
0.6928545 0.5425944 0.5435235
0.9309434 0.6221199 0.5232038
0.9315743 0.6222006 0.5194188
0.6969588 0.5436571 0.5539851
0.9004203 0.6131732 0.5875417
0.9198722 0.6186082 0.5580823
0.9355679 0.5974007 0.5306908
0.8904694 0.6096085 0.5978732
0.8956616 0.6109591 0.5929112
0.8999698 0.6106487 0.5887489
0.9319174 0.6193907 0.5220597
0.8025036 0.5683903 0.6296254
0.9097219 0.6130109 0.5766188
0.8240778 0.5893508 0.6289905
0.8816304 0.5866129 0.6086795
0.7601436 0.5590538 0.6185991
0.8150967 0.5867453 0.6298211
0.9226277 0.6161757 0.5538889
0.9374802 0.5997846 0.5182278
0.9250538 0.6164998 0.5482105
0.6840565 0.5504051 0.5146983
0.8859332 0.6054842 0.6023998
0.8933861 0.6070586 0.5959678
0.9111104 0.6115586 0.5752908
0.685138 0.550207 0.5217063
0.9335642 0.6174314 0.5145251
0.9070004 0.6098076 0.5811601
0.7415263 0.5554184 0.6081089
0.7848477 0.5762896 0.6275513
0.7627454 0.5700212 0.6207803
0.9294732 0.6142065 0.537748
0.6886134 0.5440166 0.5307184
0.9336591 0.6152543 0.5182443
0.8985465 0.5932375 0.5944679
0.7116666 0.5495939 0.5798312
0.9037814 0.5947163 0.589017
0.888633 0.5911829 0.6030994
0.7744652 0.5727736 0.6249013
0.8981078 0.605498 0.5919987
0.7244219 0.5592622 0.5957922
0.7577013 0.5680445 0.6184961
0.7316061 0.5607764 0.6020359
0.6895248 0.544868 0.534868
0.6848103 0.5484838 0.5165998
0.9323359 0.6132984 0.5280631
0.6902261 0.5498167 0.5410189
0.8960855 0.603287 0.5944455
0.785501 0.5743213 0.6275766
0.6933949 0.5466321 0.5473696
0.9295746 0.6117077 0.5394759
0.8838449 0.5926493 0.6062769
0.6932567 0.5466635 0.547044
0.8173205 0.5822393 0.6297655
0.7045642 0.5494485 0.5700005
0.86762 0.5889735 0.6162275
0.9178535 0.6078789 0.5667501
0.9354997 0.6121374 0.5087504
0.9350486 0.611585 0.5150072
0.6906118 0.5488202 0.5413888
0.7225637 0.5542478 0.5929165
0.7000246 0.5509787 0.5632399
0.8307172 0.5808393 0.6283808
0.8938948 0.5964754 0.5978945
0.7970293 0.5727915 0.6292242
0.7862145 0.5726712 0.6276312
0.6859818 0.5469967 0.5217233
0.8803586 0.5934851 0.6084536
0.6874992 0.5473496 0.5294746
0.8964031 0.5993614 0.5950699
0.8507783 0.5865047 0.6232694
0.9150909 0.6024197 0.5730425
0.6907556 0.5478071 0.5410612
0.8955641 0.5987782 0.5959522
0.684503 0.5457214 0.5046626
0.8931203 0.5001158 0.6074868
0.9430054 0.5003529 0.5420668
0.8859396 0.5004932 0.6120354
0.7420595 0.5003265 0.6040448
0.7745358 0.500385 0.6217909
0.9031438 0.5007057 0.5999351
0.7835079 0.5007202 0.6247734
0.6998429 0.5005093 0.549623
0.9007927 0.5012929 0.601844
0.793255 0.5010079 0.6272194
0.848282 0.5012438 0.6268858
0.8158972 0.5011401 0.6299353
0.7883091 0.5010945 0.6260786
0.9238037 0.5016459 0.5782568
0.778882 0.5012206 0.623327
0.8711177 0.5017254 0.6195264
0.888947 0.5021478 0.6102065
0.9247333 0.5029395 0.5769988
0.9499051 0.5031816 0.5046623
0.7530228 0.5020261 0.6114233
0.8050823 0.5026786 0.6291426
0.7696568 0.5026302 0.6198618
0.9374927 0.5046223 0.5555851
0.6949397 0.5021937 0.535539
0.7157912 0.5024505 0.5777395
0.783252 0.5038981 0.6247059
0.9267857 0.5060948 0.5740778
0.6979903 0.5031053 0.5449396
0.9489715 0.507131 0.5158662
0.9498324 0.507241 0.5053285
0.9497478 0.5072774 0.5070865
0.6920428 0.5031433 0.5230987
0.8828642 0.506278 0.6137612
0.940557 0.5075008 0.548483
0.9141459 0.5071322 0.5895822
0.9380879 0.507593 0.5542189
0.7353105 0.5040837 0.5986595
0.9127349 0.5074221 0.5910378
0.7486545 0.5044948 0.6086996
0.8550206 0.5065269 0.6251773
0.7328706 0.5044208 0.5965183
0.9403826 0.5084791 0.5488709
0.8793672 0.5074173 0.6156154
0.9479578 0.5088241 0.5224624
0.9448195 0.5087812 0.5360342
0.8512912 0.5074827 0.6261581
0.9394169 0.509549 0.5511352
0.7807771 0.5061117 0.6239628
0.6935197 0.5042222 0.5302387
0.7538046 0.5056553 0.6119218
0.7402953 0.5055019 0.6027482
0.9156979 0.5096649 0.5878657
0.8197732 0.5079194 0.6299999
0.7913482 0.5073157 0.626824
0.692238 0.5048704 0.5243441
0.7740527 0.5072978 0.621646
0.8727577 0.5100533 0.6187531
0.9496623 0.5123654 0.5066012
0.7060977 0.5058033 0.5628081
0.6985654 0.5055957 0.5466132
0.7063456 0.5060409 0.5632674
0.7533388 0.5076004 0.6116757
0.9014528 0.5121835 0.6011696
0.8627719 0.5114173 0.6226995
0.6903198 0.5060723 0.5103998
0.756997 0.5083841 0.6137885
0.945413 0.5147372 0.5333223
0.9041333 0.5133912 0.5989152
0.8865228 0.5129327 0.6115612
0.8117962 0.5106333 0.6297522
0.9494435 0.5154908 0.5086725
0.7648462 0.5091306 0.6177939
0.9268317 0.5148125 0.5737022
0.7358956 0.50837 0.5992542
0.7601191 0.5095765 0.6154788
0.8830646 0.5144904 0.6135263
0.9039448 0.5155632 0.5990094
0.6988447 0.5077504 0.547518
0.6907696 0.5076077 0.5154485
0.9447251 0.5179648 0.5353983
0.6899886 0.5078646 0.5062702
0.7942029 0.5122858 0.6274663
0.9041593 0.5169025 0.5987806
0.9291892 0.518604 0.5699253
0.9198176 0.5183558 0.5828022
0.7975307 0.5133917 0.628096
0.9128301 0.5187955 0.5905704
0.7247154 0.5103261 0.5886903
0.6903996 0.5088182 0.5125136
0.7211764 0.5103236 0.5847434
0.7408679 0.5115042 0.6033514
0.9493366 0.5215377 0.5061903
0.9413639 0.5219176 0.5451497
0.9350514 0.5217228 0.5594823
0.9267326 0.5217584 0.5734133
0.793097 0.5152931 0.6272695
0.8083385 0.516985 0.6295171
0.7739618 0.5151019 0.6217317
0.8255248 0.5182441 0.6298598
0.8756579 0.5215577 0.617188
0.7403412 0.5141 0.6030541
0.9489354 0.5265524 0.5085282
0.7911893 0.5173457 0.6268835
0.7531309 0.5154871 0.6117659
0.7874681 0.5179748 0.6260075
0.7372072 0.51489 0.6006103
0.8276019 0.5207375 0.6297375
0.6975088 0.5125422 0.5446452
0.8561945 0.5228152 0.6246458
0.7034656 0.5133758 0.558497
0.7173241 0.5145191 0.5803548
0.733796 0.5157803 0.5977768
0.9453173 0.5303236 0.530595
0.7140009 0.5147292 0.575969
0.7001324 0.5138828 0.5514472
0.9479796 0.5311122 0.5156162
0.7086753 0.5145322 0.5679638
0.6898219 0.5133407 0.5086804
0.7291159 0.5163102 0.5935155
0.6971022 0.514205 0.5438353
0.8040931 0.5219922 0.6291186
0.7194966 0.5161827 0.5831773
0.6901102 0.5141386 0.5128359
0.7440498 0.5185277 0.6060083
0.7595233 0.5198088 0.6154699
0.7086817 0.515978 0.5681458
0.8510065 0.5270376 0.6259882
0.9483284 0.5348849 0.5090654
0.8621355 0.528549 0.6225914
0.6899268 0.5151057 0.5116887
0.9261453 0.5341494 0.5730841
0.9177232 0.5337557 0.5841557
0.9462259 0.5361105 0.5244259
0.8403133 0.5279264 0.628217
0.8983467 0.5330169 0.6026932
0.8806021 0.5317461 0.6143042
0.7220922 0.5185494 0.5863996
0.7799352 0.5234819 0.6239864
0.9267119 0.5364399 0.571963
0.6902103 0.5163442 0.5153649
0.8185999 0.5277447 0.6299999
0.9157128 0.5362737 0.5862218
0.6963573 0.517199 0.5424007
0.8768049 0.5334319 0.6162018
0.8380363 0.5300428 0.628549
0.7403046 0.5213894 0.6034368
0.9082991 0.5363992 0.5938866
0.8283817 0.529507 0.6296372
0.8915296 0.5353988 0.6074826
0.7030333 0.5183911 0.558417
0.6992072 0.5182912 0.5501084
0.7453145 0.5228847 0.607145
0.942946 0.5416933 0.5360419
0.9107485 0.5387592 0.59127
0.8655235 0.5347579 0.6211395
0.6905185 0.5186738 0.5192391
0.8371105 0.5333591 0.6286397
0.8263568 0.5323493 0.6297563
0.7198189 0.5218402 0.5841393
0.908574 0.5407276 0.59323
0.752928 0.5253535 0.612115
0.8866966 0.5388264 0.6104012
0.7394622 0.5240433 0.6029862
0.9369192 0.5438879 0.5520664
0.8774638 0.5379943 0.6156506
0.9475718 0.5451189 0.5064441
0.850456 0.5353376 0.6259406
0.9468278 0.5453653 0.5150591
0.9228641 0.543142 0.5765675
0.8241009 0.5333108 0.6298702
0.9053141 0.5418856 0.5961694
0.8095112 0.5335925 0.6297105
0.807564 0.5334002 0.6295649
0.9044605 0.5446858 0.5966677
0.8155779 0.5348671 0.6299759
0.931375 0.5478737 0.5624393
0.8110075 0.5351186 0.6298105
0.7447885 0.5276583 0.6071219
0.7644306 0.5298851 0.6183059
0.6969644 0.5224506 0.5455462
0.7118639 0.5241526 0.574172
0.9314883 0.5495616 0.5618846
0.7582392 0.5296885 0.6152945
0.6992899 0.5231013 0.5514728
0.9213457 0.5489547 0.5777593
0.9468786 0.5519898 0.5052824
0.9461635 0.552255 0.5142815
0.9462435 0.5531526 0.5124978
0.7459672 0.5293641 0.6080496
0.8845214 0.5463538 0.6112205
0.9014325 0.5483958 0.5989287
0.8856497 0.5469775 0.6104884
0.7111912 0.5257412 0.5734734
0.820458 0.5392471 0.6299687
0.9220678 0.5517945 0.5763271
0.9418812 0.5547971 0.5347627
0.8639696 0.5453866 0.6212882
0.8205782 0.5402161 0.6299633
0.7072359 0.526095 0.5674585
0.8326986 0.5422747 0.6290877
0.8023874 0.5388712 0.6291172
0.6983064 0.5256087 0.5498874
0.8613937 0.5468172 0.6221779
0.9391671 0.5569054 0.5425521
0.7068709 0.5270694 0.5670649
0.7526544 0.5332511 0.6124868
0.6991282 0.5262694 0.5520009
0.7106633 0.5279989 0.5731241
0.944746 0.5591994 0.5185574
0.9131423 0.5559318 0.58665
0.7338656 0.5316877 0.5992191
0.7494682 0.5343171 0.6106849
0.7213795 0.5307279 0.5871098
0.8883555 0.5540597 0.6081738
0.7258695 0.5315468 0.5919096
0.942481 0.561931 0.5286926
0.9044501 0.5567076 0.5953118
0.9319988 0.5608537 0.5581611
0.8565221 0.5505149 0.6236663
0.6881477 0.5267428 0.5031729
0.8824542 0.5546638 0.6117984
0.9449938 0.5641894 0.5101957
0.8493482 0.5506216 0.6257427
0.7005692 0.5295062 0.5561005
0.7019582 0.529978 0.5590225
0.8333528 0.5494844 0.6288829
0.7132853 0.5323049 0.5776224
0.8801664 0.5580123 0.6128321
0.7163531 0.5331267 0.5816922
0.7220706 0.534012 0.588376
0.6976797 0.5303032 0.5499733
0.798816 0.5458513 0.6287912
0.758827 0.5397525 0.6162754
0.9274303 0.565703 0.5652292
0.7675804 0.541243 0.6203058
0.8689156 0.5569831 0.6185754
0.7085763 0.5323009 0.5709411
0.912533 0.5643025 0.5859705
0.7959577 0.5461758 0.6283796
0.9221339 0.5664176 0.5733548
0.8900753 0.5619358 0.6062108
0.6906056 0.5302882 0.5277537
0.8020737 0.5481229 0.6292312
0.9443628 0.5708493 0.5025238
0.9045311 0.5645493 0.5941441
0.7908312 0.5465609 0.6274815
0.7577596 0.5413126 0.6158655
0.6890312 0.530472 0.5195048
0.7732499 0.5442116 0.6226134
0.7915552 0.5472926 0.6276447
0.9195153 0.5681007 0.5766393
0.9363054 0.5709793 0.5447875
        </DataArray>
      </Points>
      <Verts>
        <DataArray type="Int64" Name="connectivity" format="ascii">
0
1
2
3
4
5
6
7
8
9
10
11
12
13
14
15
16
17
18
19
20
21
22
23
24
25
26
27
28
29
30
31
32
33
34
35
36
37
38
39
40
41
42
43
44
45
46
47
48
49
50
51
52
53
54
55
56
57
58
59
60
61
62
63
64
65
66
67
68
69
70
71
72
73
74
75
76
77
78
79
80
81
82
83
84
85
86
87
88
89
90
91
92
93
94
95
96
97
98
99
100
101
102
103
104
105
106
107
108
109
110
111
112
113
114
115
116
117
118
119
120
121
122
123
124
125
126
127
128
129
130
131
132
133
134
135
136
137
138
139
140
141
142
143
144
145
146
147
148
149
150
151
152
153
154
155
156
157
158
159
160
161
162
163
164
165
166
167
168
169
170
171
172
173
174
175
176
177
178
179
180
181
182
183
184
185
186
187
188
189
190
191
192
193
194
195
196
197
198
199
200
201
202
203
204
205
206
207
208
209
210
211
212
213
214
215
216
217
218
219
220
221
222
223
224
225
226
227
228
229
230
231
232
233
234
235
236
237
238
239
240
241
242
243
244
245
246
247
248
249
250
251
252
253
254
255
256
257
258
259
260
261
262
263
264
265
266
267
268
269
270
271
272
273
274
275
276
277
278
279
280
281
282
283
284
285
286
287
288
289
290
291
292
293
294
295
296
297
298
299
300
301
302
303
304
305
306
307
308
309
310
311
312
313
314
315
316
317
318
319
320
321
322
323
324
325
326
327
328
329
330
331
332
333
334
335
336
337
338
339
340
341
342
343
344
345
346
347
348
349
350
351
352
353
354
355
356
357
358
359
360
361
362
363
364
365
366
367
368
369
370
371
372
373
374
375
376
377
378
379
380
381
382
383
384
385
386
387
388
389
390
391
392
393
394
395
396
397
398
399
400
401
402
403
404
405
406
407
408
409
410
411
412
413
414
415
416
417
418
419
420
421
422
423
424
425
426
427
428
429
430
431
432
433
434
435
436
437
438
439
440
441
442
443
444
445
446
447
448
449
450
451
452
453
454
455
456
457
458
459
460
461
462
463
464
465
466
467
468
469
470
471
472
473
474
475
476
477
478
479
480
481
482
483
484
485
486
487
488
489
490
491
492
493
494
495
        </DataArray>
                <DataArray type="Int64" Name="offsets" format="ascii">
1
2
3
4
5
6
7
8
9
10
11
12
13
14
15
16
17
18
19
20
21
22
23
24
25
26
27
28
29
30
31
32
33
34
35
36
37
38
39
40
41
42
43
44
45
46
47
48
49
50
51
52
53
54
55
56
57
58
59
60
61
62
63
64
65
66
67
68
69
70
71
72
73
74
75
76
77
78
79
80
81
82
83
84
85
86
87
88
89
90
91
92
93
94
95
96
97
98
99
100
101
102
103
104
105
106
107
108
109
110
111
112
113
114
115
116
117
118
119
120
121
122
123
124
125
126
127
128
129
130
131
132
133
134
135
136
137
138
139
140
141
142
143
144
145
146
147
148
149
150
151
152
153
154
155
156
157
158
159
160
161
162
163
164
165
166
167
168
169
170
171
172
173
174
175
176
177
178
179
180
181
182
183
184
185
186
187
188
189
190
191
192
193
194
195
196
197
198
199
200
201
202
203
204
205
206
207
208
209
210
211
212
213
214
215
216
217
218
219
220
221
222
223
224
225
226
227
228
229
230
231
232
233
234
235
236
237
238
239
240
241
242
243
244
245
246
247
248
249
250
251
252
253
254
255
256
257
258
259
260
261
262
263
264
265
266
267
268
269
270
271
272
273
274
275
276
277
278
279
280
281
282
283
284
285
286
287
288
289
290
291
292
293
294
295
296
297
298
299
300
301
302
303
304
305
306
307
308
309
310
311
312
313
314
315
316
317
318
319
320
321
322
323
324
325
326
327
328
329
330
331
332
333
334
335
336
337
338
339
340
341
342
343
344
345
346
347
348
349
350
351
352
353
354
355
356
357
358
359
360
361
362
363
364
365
366
367
368
369
370
371
372
373
374
375
376
377
378
379
380
381
382
383
384
385
386
387
388
389
390
391
392
393
394
395
396
397
398
399
400
401
402
403
404
405
406
407
408
409
410
411
412
413
414
415
416
417
418
419
420
421
422
423
424
425
426
427
428
429
430
431
432
433
434
435
436
437
438
439
440
441
442
443
444
445
446
447
448
449
450
451
452
453
454
455
456
457
458
459
460
461
462
463
464
465
466
467
468
469
470
471
472
473
474
475
476
477
478
479
480
481
482
483
484
485
486
487
488
489
490
491
492
493
494
495
496
        </DataArray>
      </Verts>
      <PointData>
        <DataArray type="Float32" Name="color" format="ascii">
0.05167183
0.05158738
0.02586876
0.05150829
0.02608171
0.02610235
0.02625769
0.05130774
0.02632971
0.02641267
0.02648806
0.02650218
0.02653873
0.05129941
0.02675597
0.05124792
0.05120768
0.02678425
0.02700096
0.02701126
0.02705071
0.02707088
0.02710218
0.02718378
0.0510691
0.02724152
0.02728377
0.02729102
0.05082026
0.05080882
0.05065263
0.0505725
0.0275362
0.02756176
0.05056594
0.0505132
0.05045831
0.05038435
0.02791932
0.05035367
0.0280833
0.05026327
0.02822566
0.02829444
0.05021214
0.04993293
0.04991654
0.04952975
0.02858951
0.04941356
0.02861257
0.02862658
0.02866567
0.0493821
0.02875698
0.02881759
0.02882059
0.04926613
0.02888907
0.04919805
0.02889519
0.04918063
0.02903951
0.04916246
0.02910855
0.04901794
0.02919607
0.02921605
0.0292294
0.02927737
0.04897518
0.04873852
0.02940301
0.04868891
0.02946249
0.04866339
0.04865591
0.02961862
0.04831906
0.02974743
0.02979339
0.02980225
0.02987052
0.04821013
0.04801347
0.03014327
0.03016555
0.04791123
0.04787504
0.03034724
0.04782581
0.03041717
0.03042616
0.03045148
0.03048054
0.04775954
0.0477334
0.03056866
0.03061801
0.04766317
0.04760839
0.04758994
0.04757856
0.03078126
0.04754646
0.04722778
0.03104861
0.03105712
0.04698486
0.04694
0.03120968
0.03125503
0.04663664
0.0313857
0.04652604
0.0315268
0.03154599
0.03160636
0.03164946
0.03176305
0.03177711
0.04636519
0.03190081
0.04631299
0.04599686
0.03199402
0.03200409
0.04598916
0.04594177
0.03206252
0.04588296
0.03243896
0.04585464
0.04549147
0.04527841
0.03263624
0.03266874
0.04522105
0.03273512
0.03274043
0.04519653
0.03278218
0.04519025
0.03285842
0.04513838
0.04511292
0.0330394
0.03308875
0.04499101
0.04491822
0.0446988
0.0331391
0.03314454
0.04458145
0.04446468
0.04435794
0.04416927
0.04413875
0.03340804
0.03343949
0.04409349
0.0334964
0.0336784
0.03390557
0.04408744
0.03414312
0.03418197
0.0440741
0.03426242
0.0440095
0.03459603
0.0439488
0.04391531
0.03471636
0.04383944
0.0438174
0.03501384
0.04355537
0.04351553
0.04295475
0.04292188
0.035387
0.04283364
0.0428165
0.03551929
0.03552682
0.0427558
0.04269536
0.03569096
0.04257603
0.04254261
0.04246348
0.04228925
0.04217257
0.04214702
0.04209729
0.04194095
0.0358969
0.04164835
0.04145112
0.04136553
0.03648885
0.04134315
0.03657551
0.03662958
0.03667047
0.03667827
0.04125028
0.04122818
0.04108947
0.04108624
0.04084338
0.0369971
0.04083309
0.04079102
0.0407643
0.04059863
0.04053149
0.0376572
0.04049031
0.03769451
0.03770758
0.04035987
0.03774779
0.03779285
0.04021158
0.04010972
0.03996001
0.0399055
0.03805058
0.03971701
0.0381551
0.03822873
0.03824948
0.0395739
0.03939304
0.03835702
0.03936864
0.03908804
0.03848104
0.03850093
0.03908236
0.03894686
0.03866115
4.687766e-05
0.0001267842
0.0002033804
0.0002146387
0.0002232124
0.0002785921
0.0004043034
0.000405591
0.0005134186
0.00054701
0.0005683647
0.0005744193
0.0006041727
0.0006180787
0.0006965864
0.0007399344
0.0008788561
0.001101478
0.00112548
0.001274402
0.001397331
0.001552316
0.001681471
0.00179091
0.001807294
0.002190127
0.002272675
0.002496001
0.002527627
0.00256172
0.00257507
0.00260471
0.002609519
0.002709482
0.002740604
0.002758222
0.002761767
0.002861757
0.002876679
0.002925664
0.003021041
0.003063977
0.003111385
0.00313472
0.003141469
0.003389569
0.003458079
0.003463807
0.003471901
0.003545712
0.00364345
0.003699647
0.003940783
0.00399552
0.004031369
0.004237139
0.00429139
0.00437554
0.004480304
0.004483949
0.004658008
0.004773335
0.004828624
0.005007335
0.005076203
0.005190319
0.005264002
0.00527177
0.005323182
0.005425635
0.005483341
0.005484709
0.005521015
0.005644756
0.005856776
0.006017558
0.006128909
0.006200267
0.006343574
0.006425603
0.00658449
0.006642377
0.00665221
0.006894549
0.006954338
0.007158676
0.007241067
0.007308306
0.007365856
0.007423273
0.007595705
0.007622804
0.007896939
0.007940263
0.008108039
0.008296816
0.008758276
0.008764391
0.008910579
0.009123364
0.0093264
0.009402292
0.009469398
0.009725362
0.009938683
0.009977381
0.01006124
0.01009311
0.01018037
0.01044782
0.01061712
0.01072605
0.01082083
0.01093701
0.01102263
0.0110356
0.01106572
0.01116709
0.01131078
0.01145033
0.01149019
0.01171274
0.01181474
0.01205953
0.0121244
0.01216219
0.01223536
0.0123591
0.0125211
0.01263172
0.01272678
0.0128332
0.0128515
0.01303119
0.01316146
0.01324451
0.01326203
0.01331928
0.01355845
0.01364225
0.01382486
0.01385223
0.01390492
0.01408412
0.01410773
0.01412904
0.01415098
0.01426272
0.01435045
0.01437728
0.01457277
0.01480426
0.01493682
0.01497392
0.0150888
0.01555005
0.01569822
0.01572451
0.01576116
0.01581268
0.01590058
0.01592664
0.01592666
0.01593341
0.01596626
0.01599009
0.01599406
0.01610342
0.01618154
0.01630057
0.01638906
0.01720637
0.01721611
0.01751283
0.01751344
0.01759094
0.0178958
0.01790673
0.01791114
0.018063
0.01806573
0.01820108
0.01821732
0.01836692
0.01840911
0.0184332
0.01855583
0.01886823
0.01891075
0.01909387
0.01909519
0.01929225
0.01930346
0.01939541
0.0194337
0.01963636
0.01974452
0.01986204
0.01993578
0.02011536
0.02034743
0.02043964
0.02050373
0.02050835
0.02070806
0.02082622
0.02087555
0.0210298
0.02106105
0.02141642
0.02143419
0.02175698
0.02195075
0.02201315
0.02208599
0.02213201
0.02217047
0.02227288
0.02240122
0.0224713
0.02259482
0.02280047
0.02290262
0.02324693
0.02345314
0.02345439
0.02392432
0.02410066
0.02418107
0.02418797
0.0242091
0.02423223
0.02425465
0.02427469
0.02433949
0.02439046
0.02445311
0.02460982
0.02463303
0.02483748
0.02506127
0.02508085
0.02514342
0.0251639
0.02518336
0.02526565
0.02529355
0.02543709
0.02552986
0.02559331
0.0256125
0.02566688
        </DataArray>
        <DataArray type="Float32" Name="normal" NumberOfComponents="3" format="ascii">
0.7190575 0.2420156 0.6514482
-0.06351634 -0.02134039 0.9977526
-0.6249639 -0.1024846 0.7738972
0.895175 0.3002683 0.3293945
-0.2553653 -0.042227 0.9659221
-0.3074975 -0.05088849 0.9501871
0.7911815 0.131728 0.5972266
0.2494957 0.08333869 0.9647831
0.6776251 0.1131365 0.7266529
0.412021 0.06901196 0.9085571
-0.7379999 -0.1239716 0.6633154
-0.9544307 -0.1604154 0.2516525
-0.9799033 -0.1649281 0.1121976
0.5336396 0.1782198 0.8267204
-0.9472851 -0.160768 0.2771366
0.09153979 0.03053865 0.995333
0.4382227 0.1460727 0.8869181
-0.7897769 -0.134181 0.5985382
0.9721136 0.1665217 0.1651233
-0.7955447 -0.1363287 0.5903584
-0.47109 -0.08084867 0.8783721
-0.9448678 -0.1622818 0.2844107
-0.9832268 -0.1690691 0.06841548
0.5892426 0.1016333 0.8015384
0.4289113 0.1425541 0.8920277
0.8751255 0.1512697 0.4596441
-0.6616814 -0.1145557 0.7409823
0.2823246 0.04889162 0.9580722
0.9453375 0.3125543 0.0929883
0.9364936 0.3095557 0.1647877
-0.6282618 -0.2069867 0.7499624
0.9096002 0.2991686 0.2883152
0.9314357 0.1627799 0.3254693
-0.2601523 -0.04550787 0.9644946
-0.8486986 -0.2790993 0.4492374
0.4712475 0.1547993 0.8683104
0.6254233 0.2052054 0.7528189
0.7930408 0.2597936 0.5509933
-0.004292256 -0.000760777 0.9999905
0.8275571 0.2709242 0.49168
0.7660576 0.1365934 0.6280908
0.9423881 0.3079249 0.1307167
0.9179946 0.1645322 0.3608533
-0.1923874 -0.03456742 0.98071
0.7108933 0.2320313 0.6639218
-0.8430685 -0.2735369 0.4630475
0.948891 0.3077633 0.06991078
0.7066201 0.2272888 0.6700954
0.9616042 0.1746183 0.2117213
0.2563722 0.08225725 0.9630716
0.01077136 0.00195759 0.9999401
-0.9146743 -0.1663163 0.3683882
0.4944355 0.09002928 0.8645393
0.81141 0.2601647 0.5233815
-0.9777296 -0.1786095 0.1101971
0.9816872 0.1797188 0.0631777
0.9431268 0.1726778 0.2840673
-0.5072631 -0.1622377 0.8463823
-0.05154662 -0.009460635 0.9986258
0.9309022 0.2972911 0.212224
0.6402068 0.1175261 0.7591593
0.5234855 0.1671161 0.835485
0.9519761 0.1756517 0.2507749
-0.904373 -0.2885959 0.3143595
0.3376289 0.06244832 0.9392055
0.9528211 0.3031032 0.01613843
0.8761606 0.1625542 0.4537827
-0.4211515 -0.078191 0.9036136
-0.9708503 -0.1803323 0.1578924
0.70351 0.1308941 0.6985272
0.691977 0.2199211 0.6876063
0.694058 0.2194466 0.6856578
-0.2965311 -0.0554144 0.9534141
-0.8317469 -0.2626959 0.4890685
0.8350632 0.1563758 0.5274618
0.8201228 0.25888 0.5102742
0.4456636 0.1406551 0.8840815
0.9827325 0.1850267 0.001358243
-0.9240798 -0.2894981 0.2495343
0.3057744 0.05782682 0.9503463
0.6497278 0.1230683 0.7501386
-0.9741777 -0.1845801 0.1300306
-0.7459852 -0.1416754 0.6507182
0.4108579 0.1284059 0.9026116
0.7231726 0.2250334 0.6529788
-0.9149859 -0.1753967 0.3633687
0.06445495 0.01236494 0.997844
0.3717569 0.1154197 0.9211271
0.5247683 0.1627944 0.8355335
0.3117592 0.06017648 0.9482536
0.9185396 0.2846393 0.2743454
-0.8767406 -0.1696301 0.4500572
0.5899393 0.1141749 0.7993345
0.2974876 0.05762387 0.9529851
-0.9803541 -0.190082 0.0526758
0.2267869 0.07017381 0.9714131
-0.5057174 -0.1563912 0.8484054
-0.1212441 -0.02357781 0.9923427
-0.2001708 -0.03899078 0.9789849
0.1393006 0.04301085 0.9893156
-0.9547391 -0.294428 0.04225394
-0.9461662 -0.2916642 0.1403618
-0.03794685 -0.01169448 0.9992113
-0.5499008 -0.1076994 0.8282571
-0.3261084 -0.1004283 0.9399827
-0.7895758 -0.2414277 0.5641654
-0.2702433 -0.05339934 0.9613101
0.6516151 0.1287936 0.7475359
0.03989573 0.01213232 0.9991302
0.4097489 0.1244787 0.9036653
0.6630043 0.1317052 0.7369389
0.8695664 0.1729961 0.4625219
-0.5772908 -0.1741755 0.7977457
0.3645293 0.07283257 0.9283392
-0.9459874 -0.2846987 0.1550951
-0.1005574 -0.02018399 0.9947265
-0.7645746 -0.1535621 0.6259747
0.7468331 0.1502935 0.6478057
0.7322587 0.1475669 0.6648468
-0.9560659 -0.1933793 0.2203236
0.7446432 0.1506842 0.6502314
-0.2025862 -0.06074588 0.9773785
-0.9783916 -0.1987767 0.0569009
-0.3435876 -0.1029027 0.9334659
-0.5338142 -0.1587197 0.8305724
-0.1328361 -0.02706892 0.9907683
-0.9704071 -0.1978103 0.1384962
0.8365672 0.2486937 0.4881668
-0.958357 -0.2845887 0.02368744
-0.6941713 -0.1417672 0.7057112
-0.3697181 -0.1096409 0.9226524
-0.8617019 -0.1781053 0.4751299
-0.2688347 -0.07967159 0.9598856
0.4329561 0.1272365 0.89239
-0.6501095 -0.1901081 0.7356742
-0.9767483 -0.203147 0.06851252
-0.9594676 -0.1997573 0.1987938
0.007699387 0.00224848 0.9999678
0.7415454 0.1547095 0.6528211
-0.8055686 -0.1680948 0.5681579
-0.8322942 -0.2429187 0.4982739
0.9353009 0.1954216 0.2949959
0.8763646 0.2557439 0.4081423
-0.2892905 -0.06058892 0.955322
-0.6618304 -0.1929037 0.7244092
0.6709039 0.1954319 0.7153282
0.6582193 0.1386388 0.7399504
0.4500656 0.09494174 0.8879341
-0.08205909 -0.02383534 0.9963424
0.4106823 0.1190854 0.9039683
-0.6683186 -0.1927937 0.7184572
0.8880315 0.1876245 0.4197584
-0.06363529 -0.01344722 0.9978826
-0.6232955 -0.1793079 0.7611514
0.1204394 0.03455202 0.9921192
-0.1090535 -0.03120645 0.9935459
0.9169876 0.261227 0.3014867
0.4795241 0.1365051 0.8668466
0.9451211 0.2013554 0.2572977
0.8561583 0.1825791 0.4833816
0.7063401 0.2008552 0.6787789
-0.7246972 -0.1548154 0.6714507
-0.9776847 -0.2100298 0.004480021
-0.4332145 -0.09371182 0.8964058
-0.1185011 -0.03369216 0.9923822
-0.190985 -0.04161186 0.9807106
0.2105313 0.04592444 0.9765078
0.2428279 0.06901867 0.967611
-0.1795859 -0.03926926 0.9829582
-0.4758749 -0.1350486 0.8690828
-0.9201159 -0.2032195 0.3347961
0.9466653 0.2682642 0.178491
0.9513777 0.2693833 0.1493758
-0.8881419 -0.196862 0.4152701
0.7114113 0.2010704 0.6733978
0.8609485 0.2432063 0.4467867
0.9483119 0.2120594 0.2360836
0.6336755 0.1778787 0.7528709
0.6734483 0.1888614 0.7147019
0.7042615 0.1948287 0.682684
0.9498762 0.262565 0.1696899
-0.07399336 -0.01672849 0.9971184
0.7787783 0.2148054 0.5893751
0.1199076 0.03305944 0.9922345
0.5351269 0.1214496 0.8359959
-0.3993612 -0.09065681 0.9123003
0.05057253 0.01392249 0.9986234
0.8774862 0.2412112 0.4145301
0.9653291 0.2201813 0.1402137
0.8956604 0.2454849 0.3708499
-0.9583022 -0.2624376 0.1130639
0.5942727 0.1624281 0.7876909
0.6508936 0.1771383 0.7382138
0.7867614 0.2134948 0.5791602
-0.9515913 -0.2580589 0.1669719
0.9591782 0.2597946 0.1117313
0.7542102 0.2034837 0.6243087
-0.5412979 -0.1242013 0.8316072
-0.1866002 -0.04997636 0.981164
-0.3574057 -0.09524798 0.9290797
0.9247756 0.2459184 0.2903692
-0.9462557 -0.2208272 0.2362952
0.9568852 0.254313 0.1403409
0.6689188 0.1564893 0.7266765
-0.768428 -0.1800443 0.6140867
0.7095225 0.1664349 0.6847461
0.5930235 0.139138 0.7930723
-0.2680516 -0.07107311 0.9607794
0.6829575 0.1809827 0.7076823
-0.6536362 -0.1726031 0.7368636
-0.3976534 -0.1049981 0.9115082
-0.5993416 -0.1572748 0.7848912
-0.9374471 -0.2219306 0.2682156
-0.9593501 -0.2516792 0.1276907
0.9445276 0.2475238 0.2158695
-0.9179599 -0.2403968 0.3155299
0.6649266 0.1733926 0.7265037
-0.1859855 -0.04841556 0.9813589
-0.9053041 -0.2182902 0.3643815
0.9221126 0.2397887 0.3036604
0.5598312 0.1351274 0.8175142
-0.9061839 -0.218806 0.3618766
0.05811217 0.01506081 0.9981964
-0.8190577 -0.1979875 0.5384658
0.4353814 0.1053735 0.8940579
0.8308686 0.2145086 0.5134622
0.9662151 0.248792 0.06731125
0.9621697 0.2467855 0.11544
-0.9183227 -0.2352041 0.3183748
-0.6794951 -0.1656206 0.7147421
-0.8466386 -0.215776 0.4864604
0.1528381 0.03735921 0.9875448
0.6390904 0.1565304 0.753035
-0.1059525 -0.02596524 0.9940321
-0.1841848 -0.04676536 0.9817784
-0.9558926 -0.2415495 0.1671024
0.5354383 0.1316008 0.8342584
-0.944313 -0.2384694 0.2267272
0.6615816 0.1658304 0.731307
0.3083562 0.07604305 0.9482267
0.803142 0.1981676 0.5618652
-0.9203439 -0.2306562 0.3158557
0.6545972 0.1634627 0.7380938
-0.9700164 -0.2403785 0.03586635
0.5624644 0.0001656688 0.8268214
0.9461969 0.0007537488 0.3235907
0.5072298 0.0006481774 0.8618106
-0.5995399 -0.0008085488 0.8003444
-0.3497225 -0.0004904809 0.9368532
0.6395712 0.001119536 0.768731
-0.2807005 -0.0007130688 0.9597951
-0.9242771 -0.002355436 0.381715
0.6214955 0.002004892 0.7834152
-0.2057167 -0.0007070439 0.9786114
0.2175696 0.000776975 0.9760445
-0.03154418 -0.0001138492 0.9995024
-0.2437586 -0.0009253435 0.9698355
0.7985088 0.003101027 0.6019752
-0.3162684 -0.001384247 0.9486687
0.3932399 0.001828242 0.9194341
0.5303994 0.002928903 0.8477429
0.8056996 0.005576165 0.5922981
0.9993317 0.007066989 0.03586391
-0.5151302 -0.004124892 0.857102
-0.1146569 -0.001006678 0.9934046
-0.3871381 -0.003776068 0.922014
0.9039279 0.00955035 0.4275783
-0.9618461 -0.01082375 0.2733769
-0.8014472 -0.009101275 0.5979962
-0.2824438 -0.003886946 0.959276
0.8216794 0.01173408 0.5698291
-0.9382335 -0.01471537 0.3456896
0.9923991 0.01576216 0.1220474
0.9990302 0.01608154 0.04098842
0.9983824 0.01615488 0.05451159
-0.9839561 -0.01610474 0.1776823
0.4839017 0.007934808 0.8750864
0.9277186 0.01579517 0.3729458
0.7245645 0.01247803 0.6890941
0.9087386 0.0157504 0.4170686
-0.6510873 -0.01129925 0.7589188
0.7137428 0.01283516 0.7002903
-0.5484096 -0.009913422 0.8361511
0.2698052 0.004960249 0.9629022
-0.6697825 -0.01271518 0.7424485
0.9264764 0.0178383 0.37593
0.4571418 0.008937989 0.8893489
0.984768 0.01939853 0.1727878
0.960629 0.01896377 0.2771865
0.2412594 0.005138949 0.9704471
0.9191728 0.0199747 0.3933478
-0.3011316 -0.006554785 0.9535601
-0.9723397 -0.02121456 0.2326056
-0.5085849 -0.01133231 0.8609373
-0.6124684 -0.01402337 0.7903707
0.7368034 0.0171305 0.67589
-0.0009898924 -2.451541e-05 0.9999995
-0.2196226 -0.005514694 0.9755693
-0.9819948 -0.02487909 0.1872623
-0.3525681 -0.009388543 0.935739
0.4067236 0.01096939 0.9134854
0.9983325 0.0274534 0.05077875
-0.8751965 -0.0246438 0.4831394
-0.9331351 -0.02629662 0.3585629
-0.8732107 -0.02556367 0.486672
-0.5116713 -0.01535052 0.8590441
0.6276929 0.01904951 0.778228
0.3302328 0.01039322 0.9438423
-0.996288 -0.03178711 0.07999866
-0.48333 -0.01576782 0.8752962
0.9660618 0.03196386 0.2563258
0.6485295 0.02148943 0.7608861
0.5130907 0.01716751 0.8581627
-0.06167632 -0.002103377 0.998094
0.9971802 0.0343693 0.06671137
-0.4227984 -0.01457601 0.9061065
0.8232635 0.02857011 0.5669401
-0.6454088 -0.02290035 0.763494
-0.4589555 -0.01689683 0.8882986
0.4868715 0.01841711 0.8732794
0.6475546 0.02494906 0.7616105
-0.9300959 -0.03625249 0.3655234
-0.9921256 -0.03956494 0.118834
0.9614298 0.03883716 0.2722947
-0.9979814 -0.04131163 0.04823258
-0.1962958 -0.00819722 0.9805105
0.6495295 0.02716425 0.759851
0.8422261 0.03650785 0.5378869
0.7701774 0.03367464 0.6369402
-0.1703511 -0.007667444 0.9853536
0.7166246 0.03262676 0.6966955
-0.7303637 -0.03356149 0.6822335
-0.9942905 -0.04604968 0.09625877
-0.7575041 -0.035357 0.6518722
-0.6059054 -0.02893895 0.7950102
0.9977202 0.04782287 0.04761786
0.9365979 0.04651023 0.3473055
0.8880742 0.04434295 0.4575564
0.8242137 0.04202537 0.5647173
-0.203602 -0.01062349 0.9789961
-0.08597723 -0.004736098 0.9962859
-0.3504086 -0.01931593 0.9363977
0.04635541 0.002598007 0.9989216
0.4321806 0.0248014 0.901446
-0.6085346 -0.0357007 0.7927238
0.9961051 0.0589148 0.06560156
-0.2172654 -0.01294213 0.9760268
-0.5097834 -0.03118979 0.8597372
-0.2454478 -0.01534733 0.9692883
-0.6320325 -0.03967394 0.7739257
0.06339315 0.00401285 0.9979805
-0.9372923 -0.05951995 0.3434248
0.2834532 0.01815589 0.9588142
-0.8911169 -0.05858204 0.4499766
-0.7843398 -0.05240055 0.6181142
-0.6575196 -0.04437995 0.7521292
0.9696662 0.06602869 0.235346
-0.8095673 -0.05572062 0.5843766
-0.9161578 -0.06355219 0.3957473
0.9903733 0.0687815 0.1201249
-0.8503968 -0.05922183 0.5227983
-0.9953132 -0.06995088 0.06677224
-0.6928949 -0.04932553 0.7193495
-0.9389995 -0.0676727 0.3371948
-0.1159481 -0.008385446 0.9932199
-0.7664405 -0.05650693 0.639825
-0.9923729 -0.07380361 0.0987379
-0.5771692 -0.04381732 0.8154482
-0.4580662 -0.03496307 0.8882303
-0.8491111 -0.06501339 0.5241981
0.2457817 0.01893229 0.9691403
0.9945593 0.07738763 0.06973445
0.3317335 0.02615226 0.9430106
-0.9928144 -0.078963 0.08991328
0.8243684 0.06606124 0.5621856
0.7597151 0.06139152 0.6473515
0.9789894 0.07922406 0.1878915
0.1645025 0.01349922 0.9862843
0.6110787 0.05064922 0.7899477
0.4746885 0.03959394 0.8792629
-0.7445961 -0.06218957 0.664612
-0.299576 -0.02512947 0.9537414
0.829788 0.07086135 0.5535617
-0.9893451 -0.08501177 0.1181913
-0.001488935 -0.0001296613 0.9999989
0.7455698 0.06505585 0.6632446
-0.9417092 -0.08248448 0.3261596
0.4465929 0.03962389 0.8938594
0.148405 0.0131894 0.9888387
-0.6033475 -0.05370355 0.7956681
0.6889476 0.0614185 0.7222042
0.07435163 0.006680937 0.9972097
0.5602273 0.0506511 0.8267889
-0.8897074 -0.08059115 0.4493615
-0.9188638 -0.08437023 0.385449
-0.5638626 -0.05260111 0.8241917
0.956571 0.09003944 0.277245
0.7089518 0.06689847 0.7020769
0.3612348 0.03435011 0.931842
-0.9842717 -0.09647432 0.1479929
0.1435832 0.01420841 0.9895362
0.06090247 0.00603682 0.9981255
-0.7585636 -0.07536732 0.6472257
0.6934777 0.06912738 0.7171541
-0.503664 -0.0504873 0.8624231
0.5253658 0.05274956 0.8492398
-0.6072067 -0.06096691 0.7922014
0.9117038 0.09157918 0.4005114
0.4544055 0.04573904 0.8896199
0.9937341 0.1001765 0.04956975
0.246696 0.02487518 0.9687736
0.988188 0.1003282 0.1158393
0.8039738 0.08202412 0.5889806
0.04444466 0.004567984 0.9990014
0.6693017 0.06916635 0.7397643
-0.0663123 -0.00719714 0.9977729
-0.08127437 -0.008826062 0.9966527
0.6645833 0.07342491 0.7435979
-0.01912832 -0.002113421 0.9998148
0.8717512 0.09674647 0.4803019
-0.05362872 -0.006055696 0.9985426
-0.562986 -0.06361093 0.8240148
-0.4118857 -0.04654989 0.9100457
-0.9305913 -0.1060716 0.350355
-0.815975 -0.09302144 0.570554
0.8736814 0.1003527 0.4760358
-0.4589761 -0.05276633 0.8868803
-0.9121663 -0.1057363 0.395945
0.7960305 0.09248797 0.5981483
0.9924801 0.115465 0.04063408
0.9871995 0.1156217 0.1098579
0.9883814 0.1177273 0.09613731
-0.5521271 -0.0659141 0.8311504
0.5140113 0.06196367 0.8555424
0.6440996 0.07765114 0.7609901
0.5230603 0.06371607 0.8499107
-0.8189073 -0.09981291 0.5651798
0.02177868 0.002667276 0.9997593
0.8034645 0.09859797 0.5871313
0.9562595 0.1185845 0.2674052
0.357145 0.04453557 0.9329866
0.02359125 0.002959494 0.9997173
-0.8481306 -0.1067962 0.5189114
0.1173158 0.01490683 0.9929828
-0.1153928 -0.0148335 0.9932092
-0.9158327 -0.1182677 0.3837489
0.3388114 0.04389174 0.9398299
0.9370784 0.1214226 0.3273235
-0.8494176 -0.1111478 0.5158836
-0.4969984 -0.06540848 0.8652828
-0.9086393 -0.1198698 0.4000074
-0.8195947 -0.1089311 0.5624932
0.9811055 0.1305934 0.1427492
0.7387314 0.1000105 0.6665387
-0.6402832 -0.08675529 0.763224
-0.5195875 -0.07147504 0.8514224
-0.7352441 -0.1020532 0.6700755
0.5493192 0.07646607 0.8321066
-0.7004178 -0.09782601 0.7069972
0.9659238 0.1351935 0.2207123
0.6734607 0.09442542 0.7331675
0.8855941 0.1247496 0.4473932
0.3052817 0.04325473 0.9512792
-0.9897541 -0.1406808 0.02440702
0.5051808 0.07220496 0.8599877
0.9867072 0.1423303 0.07842829
0.2511976 0.03639929 0.9672512
-0.8924868 -0.1312959 0.4315422
-0.8813355 -0.1308223 0.4540191
0.1293947 0.01920793 0.9914071
-0.793124 -0.1201294 0.5970956
0.4909871 0.07492319 0.8679391
-0.768928 -0.1177337 0.6284016
-0.72493 -0.1110292 0.6798154
-0.9125032 -0.1398816 0.38441
-0.1344776 -0.02063467 0.9907017
-0.4420329 -0.06789066 0.8944259
0.8549632 0.1314217 0.5017632
-0.374499 -0.05772265 0.9254289
0.4051223 0.06257555 0.9121186
-0.8281089 -0.1282442 0.5457006
0.7411615 0.1155266 0.6613117
-0.1555167 -0.02426399 0.9875352
0.8155589 0.1283183 0.5642679
0.5694946 0.09042385 0.8170064
-0.9648396 -0.1533181 0.2134903
-0.107241 -0.01708438 0.9940863
0.9873406 0.1574218 0.01941376
0.6809901 0.1086626 0.7241857
-0.1934234 -0.03096628 0.9806266
-0.4477519 -0.07176375 0.8912733
-0.9760796 -0.1573449 0.1500369
-0.3280151 -0.0530725 0.9431805
-0.1870481 -0.03034072 0.9818821
0.7973076 0.1294284 0.5895329
0.9265978 0.1507413 0.3445194
        </DataArray>
        <DataArray type="Float32" Name="domain" format="ascii">
1.0
1.0
1.0
1.0
1.0
1.0
1.0
1.0
1.0
1.0
1.0
1.0
1.0
1.0
1.0
1.0
1.0
1.0
1.0
1.0
1.0
1.0
1.0
1.0
1.0
1.0
1.0
1.0
1.0
1.0
1.0
1.0
1.0
1.0
1.0
1.0
1.0
1.0
1.0
1.0
1.0
1.0
1.0
1.0
1.0
1.0
1.0
1.0
1.0
1.0
1.0
1.0
1.0
1.0
1.0
1.0
1.0
1.0
1.0
1.0
1.0
1.0
1.0
1.0
1.0
1.0
1.0
1.0
1.0
1.0
1.0
1.0
1.0
1.0
1.0
1.0
1.0
1.0
1.0
1.0
1.0
1.0
1.0
1.0
1.0
1.0
1.0
1.0
1.0
1.0
1.0
1.0
1.0
1.0
1.0
1.0
1.0
1.0
1.0
1.0
1.0
1.0
1.0
1.0
1.0
1.0
1.0
1.0
1.0
1.0
1.0
1.0
1.0
1.0
1.0
1.0
1.0
1.0
1.0
1.0
1.0
1.0
1.0
1.0
1.0
1.0
1.0
1.0
1.0
1.0
1.0
1.0
1.0
1.0
1.0
1.0
1.0
1.0
1.0
1.0
1.0
1.0
1.0
1.0
1.0
1.0
1.0
1.0
1.0
1.0
1.0
1.0
1.0
1.0
1.0
1.0
1.0
1.0
1.0
1.0
1.0
1.0
1.0
1.0
1.0
1.0
1.0
1.0
1.0
1.0
1.0
1.0
1.0
1.0
1.0
1.0
1.0
1.0
1.0
1.0
1.0
1.0
1.0
1.0
1.0
1.0
1.0
1.0
1.0
1.0
1.0
1.0
1.0
1.0
1.0
1.0
1.0
1.0
1.0
1.0
1.0
1.0
1.0
1.0
1.0
1.0
1.0
1.0
1.0
1.0
1.0
1.0
1.0
1.0
1.0
1.0
1.0
1.0
1.0
1.0
1.0
1.0
1.0
1.0
1.0
1.0
1.0
1.0
1.0
1.0
1.0
1.0
1.0
1.0
1.0
1.0
1.0
1.0
1.0
1.0
1.0
1.0
1.0
1.0
1.0
1.0
1.0
1.0
1.0
1.0
1.0
1.0
1.0
1.0
1.0
1.0
1.0
1.0
1.0
1.0
1.0
1.0
1.0
1.0
1.0
1.0
1.0
1.0
1.0
1.0
1.0
1.0
1.0
1.0
1.0
1.0
1.0
1.0
1.0
1.0
1.0
1.0
1.0
1.0
1.0
1.0
1.0
1.0
1.0
1.0
1.0
1.0
1.0
1.0
1.0
1.0
1.0
1.0
1.0
1.0
1.0
1.0
1.0
1.0
1.0
1.0
1.0
1.0
1.0
1.0
1.0
1.0
1.0
1.0
1.0
1.0
1.0
1.0
1.0
1.0
1.0
1.0
1.0
1.0
1.0
1.0
1.0
1.0
1.0
1.0
1.0
1.0
1.0
1.0
1.0
1.0
1.0
1.0
1.0
1.0
1.0
1.0
1.0
1.0
1.0
1.0
1.0
1.0
1.0
1.0
1.0
1.0
1.0
1.0
1.0
1.0
1.0
1.0
1.0
1.0
1.0
1.0
1.0
1.0
1.0
1.0
1.0
1.0
1.0
1.0
1.0
1.0
1.0
1.0
1.0
1.0
1.0
1.0
1.0
1.0
1.0
1.0
1.0
1.0
1.0
1.0
1.0
1.0
1.0
1.0
1.0
1.0
1.0
1.0
1.0
1.0
1.0
1.0
1.0
1.0
1.0
1.0
1.0
1.0
1.0
1.0
1.0
1.0
1.0
1.0
1.0
1.0
1.0
1.0
1.0
1.0
1.0
1.0
1.0
1.0
1.0
1.0
1.0
1.0
1.0
1.0
1.0
1.0
1.0
1.0
1.0
1.0
1.0
1.0
1.0
1.0
1.0
1.0
1.0
1.0
1.0
1.0
1.0
1.0
1.0
1.0
1.0
1.0
1.0
1.0
1.0
1.0
1.0
1.0
1.0
1.0
1.0
1.0
1.0
1.0
1.0
1.0
1.0
1.0
1.0
1.0
1.0
1.0
1.0
1.0
1.0
1.0
1.0
1.0
1.0
1.0
1.0
1.0
1.0
1.0
1.0
1.0
1.0
1.0
1.0
1.0
1.0
1.0
1.0
1.0
1.0
1.0
1.0
1.0
1.0
1.0
        </DataArray>
      </PointData>
    </Piece>
  </PolyData>
</VTKFile>